<?xml version="1.0" encoding="utf-8"?>
<!-- Generator: Adobe Illustrator 27.5.0, SVG Export Plug-In . SVG Version: 6.00 Build 0)  -->
<svg version="1.1" xmlns="http://www.w3.org/2000/svg" xmlns:xlink="http://www.w3.org/1999/xlink" x="0px" y="0px"
	 viewBox="0 0 500 500" style="enable-background:new 0 0 500 500;" xml:space="preserve">
<g id="BACKGROUND">
	<rect style="fill:#09BE99;" width="500" height="500"/>
</g>
<g id="OBJECTS">
	<linearGradient id="SVGID_1_" gradientUnits="userSpaceOnUse" x1="254.3126" y1="-676.4271" x2="254.3126" y2="568.5174">
		<stop  offset="0" style="stop-color:#FFFFFF"/>
		<stop  offset="1" style="stop-color:#FFFFFF;stop-opacity:0"/>
	</linearGradient>
	<circle style="fill:url(#SVGID_1_);" cx="254.313" cy="246.25" r="171.653"/>
	<rect y="351.372" style="fill:#009D81;" width="500" height="148.628"/>
	<g>
		
			<linearGradient id="SVGID_00000013158572356247001930000009397129126249331865_" gradientUnits="userSpaceOnUse" x1="441.555" y1="69.4748" x2="441.555" y2="146.0537">
			<stop  offset="0" style="stop-color:#FFFFFF"/>
			<stop  offset="1" style="stop-color:#FFFFFF;stop-opacity:0"/>
		</linearGradient>
		<path style="fill:url(#SVGID_00000013158572356247001930000009397129126249331865_);" d="M413.884,107.316
			c0,0,2.952-18.961,11.266-18.222c2.301,0.204,3.866,2.537,4.891,5.04c0.632,1.543,2.841,1.435,3.298-0.169
			c2.2-7.705,6.699-19.465,13.67-19.465c7.211,0,7.449,13.455,6.926,21.649c-0.079,1.234,1.521,1.782,2.216,0.759
			c1.902-2.799,4.678-5.486,8.053-4.707c6.575,1.517,4.805,15.114,4.805,15.114H413.884z"/>
		
			<linearGradient id="SVGID_00000135661822903013709870000011473778274384922011_" gradientUnits="userSpaceOnUse" x1="23.0487" y1="156.5247" x2="23.0487" y2="278.2373">
			<stop  offset="0" style="stop-color:#FFFFFF"/>
			<stop  offset="1" style="stop-color:#FFFFFF;stop-opacity:0"/>
		</linearGradient>
		<path style="fill:url(#SVGID_00000135661822903013709870000011473778274384922011_);" d="M39.314,198.438
			c-4.56-1.052-8.309,2.577-10.878,6.359c-0.939,1.382-3.1,0.642-2.994-1.026c0.707-11.069,0.385-29.244-9.356-29.244
			c-7.371,0-12.696,9.734-16.087,18.954v25.373h45.804C45.804,218.854,48.195,200.488,39.314,198.438z"/>
		
			<linearGradient id="SVGID_00000042703346009274436700000004534281563455893383_" gradientUnits="userSpaceOnUse" x1="480.2899" y1="258.0292" x2="480.2899" y2="340.6709">
			<stop  offset="0" style="stop-color:#FFFFFF"/>
			<stop  offset="1" style="stop-color:#FFFFFF;stop-opacity:0"/>
		</linearGradient>
		<path style="fill:url(#SVGID_00000042703346009274436700000004534281563455893383_);" d="M500,264.864
			c-6.333,4.598-10.619,16.244-12.971,24.482c-0.622,2.179-3.625,2.327-4.484,0.229c-1.394-3.404-3.522-6.574-6.65-6.852
			c-11.302-1.004-15.315,24.772-15.315,24.772H500V264.864z"/>
		
			<linearGradient id="SVGID_00000158023939318851436110000015264245444248674992_" gradientUnits="userSpaceOnUse" x1="77.2011" y1="42.0572" x2="77.2011" y2="127.819">
			<stop  offset="0" style="stop-color:#FFFFFF"/>
			<stop  offset="1" style="stop-color:#FFFFFF;stop-opacity:0"/>
		</linearGradient>
		<path style="fill:url(#SVGID_00000158023939318851436110000015264245444248674992_);" d="M49.53,95.449
			c0,0,2.952-18.961,11.266-18.222c2.301,0.204,3.866,2.537,4.891,5.04c0.632,1.543,2.841,1.435,3.298-0.169
			c2.2-7.705,6.699-19.465,13.67-19.465c7.211,0,7.449,13.455,6.926,21.649c-0.079,1.234,1.521,1.782,2.216,0.759
			c1.902-2.799,4.677-5.486,8.053-4.707c6.575,1.517,4.805,15.114,4.805,15.114H49.53z"/>
	</g>
	<g>
		<g style="opacity:0.5;">
			<path style="fill:#FFFFFF;" d="M9.585,99.34c-1.831-0.858-3.694-1.678-5.53-2.441c-0.383-0.16-0.823,0.023-0.98,0.405
				c-0.16,0.383,0.022,0.821,0.405,0.981c1.816,0.753,3.657,1.566,5.47,2.416c0.103,0.048,0.21,0.07,0.318,0.07
				c0.283,0,0.553-0.16,0.68-0.433C10.123,99.963,9.96,99.517,9.585,99.34z M20.733,105.188c-1.728-1.01-3.507-1.996-5.285-2.931
				c-0.365-0.193-0.82-0.053-1.013,0.315c-0.193,0.365-0.053,0.82,0.315,1.013c1.758,0.925,3.517,1.901,5.228,2.899
				c0.118,0.07,0.248,0.103,0.378,0.103c0.258,0,0.508-0.133,0.648-0.373C21.211,105.855,21.09,105.395,20.733,105.188z
				 M31.298,112.021c-1.621-1.161-3.302-2.306-4.993-3.402c-0.348-0.225-0.81-0.128-1.038,0.22
				c-0.225,0.348-0.125,0.813,0.223,1.038c1.671,1.086,3.332,2.216,4.935,3.364c0.133,0.095,0.285,0.14,0.438,0.14
				c0.233,0,0.463-0.11,0.61-0.313C31.713,112.731,31.636,112.261,31.298,112.021z M41.166,119.827
				c-1.501-1.313-3.062-2.614-4.64-3.867c-0.325-0.258-0.798-0.205-1.056,0.12c-0.258,0.325-0.203,0.798,0.123,1.056
				c1.558,1.238,3.102,2.524,4.585,3.822c0.143,0.125,0.318,0.185,0.493,0.185c0.21,0,0.418-0.088,0.565-0.255
				C41.508,120.575,41.478,120.103,41.166,119.827z M50.193,128.592c-1.356-1.463-2.776-2.916-4.22-4.325
				c-0.295-0.288-0.77-0.283-1.061,0.015c-0.288,0.295-0.283,0.77,0.015,1.061c1.423,1.388,2.826,2.824,4.165,4.27
				c0.147,0.16,0.348,0.24,0.55,0.24c0.183,0,0.365-0.065,0.51-0.2C50.455,129.37,50.475,128.897,50.193,128.592z M58.229,138.269
				c-1.191-1.606-2.444-3.204-3.724-4.755c-0.265-0.32-0.738-0.363-1.056-0.1c-0.32,0.265-0.365,0.738-0.1,1.058
				c1.263,1.528,2.501,3.107,3.674,4.692c0.148,0.198,0.373,0.303,0.603,0.303c0.155,0,0.313-0.048,0.448-0.147
				C58.407,139.072,58.477,138.604,58.229,138.269z M65.135,148.782c-1.003-1.733-2.069-3.464-3.167-5.143
				c-0.225-0.348-0.69-0.443-1.038-0.218c-0.348,0.228-0.445,0.693-0.218,1.038c1.083,1.658,2.133,3.364,3.124,5.075
				c0.138,0.24,0.39,0.375,0.65,0.375c0.128,0,0.255-0.033,0.375-0.102C65.22,149.6,65.343,149.142,65.135,148.782z M70.803,160.008
				c-0.8-1.841-1.663-3.679-2.561-5.468c-0.185-0.37-0.635-0.52-1.006-0.335c-0.37,0.188-0.52,0.638-0.335,1.008
				c0.885,1.763,1.736,3.579,2.526,5.395c0.123,0.283,0.4,0.45,0.688,0.45c0.1,0,0.203-0.02,0.3-0.063
				C70.795,160.83,70.968,160.388,70.803,160.008z M75.175,171.793c-0.595-1.923-1.246-3.847-1.936-5.718
				c-0.143-0.388-0.573-0.588-0.963-0.443c-0.388,0.143-0.588,0.573-0.445,0.963c0.68,1.846,1.323,3.744,1.911,5.643
				c0.1,0.32,0.398,0.528,0.718,0.528c0.073,0,0.148-0.012,0.223-0.035C75.077,172.609,75.298,172.189,75.175,171.793z
				 M78.254,183.984c-0.068-0.35-0.14-0.7-0.213-1.053c-0.335-1.621-0.708-3.249-1.105-4.84c-0.1-0.403-0.51-0.648-0.91-0.548
				c-0.403,0.103-0.645,0.508-0.545,0.91c0.393,1.573,0.76,3.182,1.093,4.782c0.07,0.345,0.14,0.693,0.21,1.038
				c0.07,0.358,0.383,0.605,0.735,0.605c0.048,0,0.095-0.005,0.145-0.012C78.069,184.787,78.334,184.392,78.254,183.984z
				 M79.315,190.45c-0.053-0.413-0.43-0.7-0.84-0.648c-0.413,0.055-0.7,0.43-0.648,0.843c0.26,1.974,0.458,3.967,0.59,5.926
				c0.027,0.395,0.358,0.7,0.748,0.7c0.017,0,0.035-0.003,0.052-0.003c0.413-0.027,0.725-0.388,0.698-0.8
				C79.78,194.48,79.577,192.456,79.315,190.45z M79.38,202.269c-0.413,0.005-0.75,0.333-0.75,0.748
				c-0.007,1.981-0.08,3.98-0.218,5.938c-0.03,0.415,0.283,0.773,0.695,0.803h0.055c0.39,0,0.718-0.3,0.748-0.698
				c0.14-1.991,0.213-4.024,0.22-6.04C80.13,202.606,79.795,202.269,79.38,202.269z M78.574,214.722
				c-0.41-0.063-0.793,0.223-0.853,0.633c-0.283,1.951-0.638,3.919-1.058,5.85c-0.087,0.403,0.17,0.803,0.575,0.89
				c0.052,0.013,0.108,0.018,0.16,0.018c0.345,0,0.655-0.24,0.733-0.59c0.425-1.964,0.788-3.967,1.076-5.951
				C79.267,215.163,78.984,214.782,78.574,214.722z M76,226.936c-0.398-0.118-0.815,0.11-0.933,0.508
				c-0.558,1.883-1.188,3.782-1.876,5.643c-0.143,0.388,0.055,0.82,0.443,0.963c0.088,0.033,0.175,0.048,0.26,0.048
				c0.305,0,0.593-0.188,0.705-0.49c0.698-1.893,1.341-3.824,1.906-5.738C76.623,227.471,76.398,227.053,76,226.936z
				 M71.738,238.674c-0.378-0.17-0.823-0.003-0.993,0.375c-0.805,1.786-1.686,3.589-2.616,5.355
				c-0.193,0.365-0.053,0.82,0.313,1.013c0.113,0.06,0.233,0.088,0.35,0.088c0.27,0,0.53-0.145,0.665-0.4
				c0.943-1.793,1.838-3.624,2.656-5.438C72.284,239.287,72.116,238.844,71.738,238.674z M65.97,249.767
				c-0.355-0.215-0.815-0.103-1.033,0.25c-1.018,1.671-2.109,3.357-3.242,5.005c-0.235,0.34-0.15,0.808,0.193,1.043
				c0.13,0.088,0.278,0.133,0.425,0.133c0.238,0,0.473-0.115,0.618-0.328c1.148-1.671,2.254-3.377,3.289-5.07
				C66.436,250.445,66.323,249.985,65.97,249.767z M58.942,260.108c-0.33-0.253-0.8-0.193-1.053,0.138
				c-1.196,1.551-2.461,3.112-3.757,4.64c-0.268,0.315-0.23,0.788,0.085,1.058c0.143,0.117,0.315,0.178,0.485,0.178
				c0.213,0,0.425-0.09,0.573-0.265c1.313-1.546,2.591-3.124,3.802-4.695C59.33,260.833,59.27,260.36,58.942,260.108z
				 M50.888,269.68c-0.305-0.283-0.778-0.265-1.06,0.037c-1.338,1.433-2.741,2.874-4.172,4.287c-0.293,0.29-0.298,0.765-0.005,1.061
				c0.148,0.148,0.34,0.223,0.533,0.223c0.19,0,0.383-0.073,0.528-0.215c1.443-1.428,2.861-2.884,4.212-4.332
				C51.206,270.438,51.191,269.962,50.888,269.68z M42.011,278.514c-0.278-0.305-0.753-0.328-1.061-0.05
				c-1.451,1.323-2.961,2.651-4.49,3.949c-0.315,0.268-0.355,0.743-0.088,1.058c0.15,0.175,0.36,0.265,0.573,0.265
				c0.173,0,0.345-0.06,0.485-0.18c1.543-1.308,3.067-2.649,4.53-3.982C42.269,279.295,42.291,278.822,42.011,278.514z
				 M32.501,286.643c-0.258-0.323-0.728-0.378-1.053-0.122c-1.541,1.221-3.139,2.446-4.75,3.642c-0.333,0.248-0.4,0.718-0.155,1.051
				c0.148,0.198,0.375,0.303,0.603,0.303c0.157,0,0.313-0.048,0.448-0.148c1.623-1.208,3.232-2.441,4.785-3.669
				C32.704,287.441,32.759,286.969,32.501,286.643z M22.481,294.137c-0.238-0.338-0.705-0.423-1.045-0.185
				c-1.611,1.126-3.279,2.256-4.955,3.362c-0.348,0.228-0.443,0.693-0.213,1.041c0.143,0.218,0.383,0.338,0.625,0.338
				c0.143,0,0.285-0.043,0.413-0.125c1.688-1.113,3.367-2.251,4.987-3.384C22.634,294.945,22.719,294.477,22.481,294.137z
				 M12.051,301.056c-0.22-0.353-0.683-0.46-1.036-0.243c-1.668,1.038-3.392,2.083-5.123,3.107
				c-0.358,0.212-0.475,0.673-0.263,1.028c0.14,0.238,0.388,0.37,0.645,0.37c0.13,0,0.263-0.035,0.38-0.105
				c1.741-1.03,3.477-2.081,5.153-3.124C12.161,301.868,12.269,301.406,12.051,301.056z M1.288,307.446
				c-0.203-0.363-0.66-0.49-1.023-0.288c-0.088,0.05-0.175,0.098-0.265,0.147v1.716c0.335-0.185,0.668-0.37,0.998-0.555
				C1.361,308.267,1.491,307.809,1.288,307.446z"/>
		</g>
		<g style="opacity:0.5;">
			<g>
				<path style="fill:#FFFFFF;" d="M165.728,66.588c-1.928-0.35-3.902-0.723-5.87-1.111c-0.405-0.08-0.8,0.185-0.88,0.59
					c-0.08,0.408,0.185,0.8,0.593,0.881c1.973,0.39,3.954,0.765,5.888,1.118c0.045,0.007,0.093,0.013,0.135,0.013
					c0.358,0,0.673-0.255,0.738-0.618C166.406,67.053,166.136,66.663,165.728,66.588z"/>
				<path style="fill:#FFFFFF;" d="M93.669,47.856c-1.868-0.608-3.774-1.236-5.663-1.866c-0.393-0.13-0.818,0.08-0.948,0.475
					c-0.132,0.393,0.08,0.818,0.473,0.948c1.893,0.633,3.802,1.261,5.675,1.868c0.077,0.025,0.155,0.038,0.233,0.038
					c0.315,0,0.61-0.2,0.713-0.518C94.28,48.407,94.064,47.984,93.669,47.856z"/>
				<path style="fill:#FFFFFF;" d="M117.421,55.125c-1.883-0.538-3.809-1.098-5.723-1.666c-0.395-0.118-0.815,0.11-0.933,0.508
					c-0.118,0.398,0.11,0.815,0.508,0.933c1.919,0.568,3.847,1.128,5.735,1.668c0.07,0.02,0.14,0.03,0.208,0.03
					c0.328,0,0.628-0.215,0.72-0.545C118.051,55.655,117.821,55.24,117.421,55.125z"/>
				<path style="fill:#FFFFFF;" d="M81.888,43.922c-1.858-0.638-3.754-1.293-5.635-1.954c-0.393-0.138-0.82,0.07-0.958,0.46
					c-0.135,0.39,0.07,0.82,0.46,0.956c1.886,0.66,3.784,1.321,5.645,1.956c0.08,0.028,0.163,0.043,0.243,0.043
					c0.313,0,0.603-0.198,0.71-0.508C82.489,44.482,82.279,44.055,81.888,43.922z"/>
				<path style="fill:#FFFFFF;" d="M141.408,61.443c-1.908-0.458-3.854-0.935-5.783-1.421c-0.403-0.1-0.81,0.143-0.91,0.545
					c-0.103,0.403,0.143,0.81,0.545,0.91c1.934,0.488,3.887,0.965,5.8,1.423c0.058,0.015,0.115,0.02,0.175,0.02
					c0.338,0,0.645-0.23,0.728-0.575C142.061,61.944,141.811,61.538,141.408,61.443z"/>
				<path style="fill:#FFFFFF;" d="M129.382,58.414c-1.891-0.498-3.824-1.018-5.743-1.546c-0.4-0.11-0.813,0.125-0.923,0.525
					c-0.108,0.4,0.128,0.813,0.525,0.923c1.924,0.528,3.862,1.048,5.758,1.548c0.063,0.018,0.128,0.025,0.19,0.025
					c0.333,0,0.638-0.223,0.725-0.558C130.02,58.93,129.782,58.519,129.382,58.414z"/>
				<path style="fill:#FFFFFF;" d="M105.515,51.598c-1.884-0.578-3.797-1.173-5.693-1.771c-0.395-0.125-0.818,0.095-0.943,0.49
					c-0.125,0.395,0.095,0.815,0.49,0.94c1.901,0.6,3.819,1.196,5.705,1.773c0.073,0.022,0.148,0.035,0.22,0.035
					c0.32,0,0.618-0.21,0.718-0.533C106.133,52.139,105.91,51.718,105.515,51.598z"/>
				<path style="fill:#FFFFFF;" d="M11.923,17.949C10,17.396,8.049,16.881,6.126,16.421c-0.405-0.097-0.808,0.15-0.905,0.553
					c-0.097,0.403,0.153,0.808,0.555,0.905c1.901,0.455,3.829,0.965,5.733,1.513c0.07,0.02,0.14,0.03,0.208,0.03
					c0.328,0,0.628-0.215,0.72-0.543C12.551,18.479,12.321,18.064,11.923,17.949z"/>
				<path style="fill:#FFFFFF;" d="M23.757,21.934c-1.868-0.72-3.764-1.406-5.635-2.041c-0.393-0.133-0.818,0.078-0.951,0.47
					c-0.133,0.393,0.078,0.818,0.468,0.95c1.853,0.628,3.729,1.308,5.58,2.021c0.088,0.035,0.18,0.05,0.27,0.05
					c0.3,0,0.585-0.183,0.7-0.48C24.337,22.519,24.145,22.083,23.757,21.934z"/>
				<path style="fill:#FFFFFF;" d="M46.878,31.118c-1.903-0.738-3.757-1.461-5.558-2.169c-0.388-0.153-0.823,0.038-0.973,0.423
					c-0.153,0.388,0.038,0.823,0.423,0.973c1.803,0.71,3.659,1.436,5.565,2.171c0.09,0.035,0.18,0.053,0.27,0.053
					c0.303,0,0.585-0.183,0.7-0.48C47.456,31.703,47.264,31.268,46.878,31.118z"/>
				<path style="fill:#FFFFFF;" d="M58.494,35.538c-1.821-0.68-3.699-1.388-5.583-2.104c-0.388-0.148-0.82,0.045-0.968,0.433
					c-0.148,0.388,0.048,0.823,0.435,0.968c1.886,0.718,3.767,1.426,5.59,2.109c0.087,0.033,0.175,0.048,0.263,0.048
					c0.305,0,0.59-0.188,0.703-0.488C59.079,36.113,58.882,35.683,58.494,35.538z"/>
				<path style="fill:#FFFFFF;" d="M70.163,39.81c-1.846-0.663-3.732-1.346-5.608-2.031c-0.388-0.143-0.82,0.057-0.963,0.445
					c-0.143,0.39,0.058,0.82,0.448,0.963c1.879,0.688,3.767,1.373,5.615,2.036c0.085,0.03,0.17,0.042,0.255,0.042
					c0.308,0,0.595-0.19,0.705-0.495C70.755,40.38,70.553,39.95,70.163,39.81z"/>
				<path style="fill:#FFFFFF;" d="M35.31,26.568c-1.924-0.765-3.769-1.508-5.54-2.224c-0.383-0.155-0.82,0.032-0.976,0.415
					c-0.155,0.385,0.03,0.823,0.413,0.978c1.773,0.715,3.622,1.458,5.545,2.224c0.092,0.038,0.185,0.055,0.278,0.055
					c0.298,0,0.58-0.18,0.698-0.473C35.88,27.159,35.693,26.721,35.31,26.568z"/>
				<path style="fill:#FFFFFF;" d="M153.524,64.18c-1.916-0.405-3.877-0.835-5.826-1.276c-0.405-0.09-0.808,0.163-0.898,0.568
					c-0.093,0.405,0.163,0.805,0.565,0.898c1.956,0.44,3.924,0.87,5.845,1.278c0.053,0.013,0.105,0.018,0.158,0.018
					c0.348,0,0.658-0.243,0.733-0.595C154.19,64.665,153.929,64.267,153.524,64.18z"/>
				<path style="fill:#FFFFFF;" d="M294.155,44.667c-1.293,1.461-2.671,2.884-4.095,4.227c-0.303,0.283-0.318,0.758-0.033,1.061
					c0.148,0.155,0.348,0.235,0.545,0.235c0.185,0,0.37-0.068,0.515-0.205c1.458-1.373,2.866-2.829,4.19-4.325
					c0.275-0.31,0.248-0.783-0.063-1.058C294.905,44.327,294.43,44.357,294.155,44.667z"/>
				<path style="fill:#FFFFFF;" d="M177.969,68.612c-1.936-0.285-3.917-0.595-5.885-0.921c-0.408-0.067-0.795,0.21-0.86,0.618
					c-0.068,0.41,0.208,0.795,0.618,0.863c1.976,0.325,3.964,0.638,5.908,0.923c0.038,0.007,0.073,0.01,0.11,0.01
					c0.365,0,0.685-0.268,0.74-0.64C178.662,69.054,178.377,68.672,177.969,68.612z"/>
				<path style="fill:#FFFFFF;" d="M274.912,59.71c-1.706,0.91-3.489,1.783-5.305,2.589c-0.378,0.17-0.548,0.613-0.38,0.99
					c0.125,0.28,0.398,0.448,0.685,0.448c0.103,0,0.205-0.022,0.305-0.065c1.848-0.823,3.667-1.711,5.403-2.639
					c0.365-0.198,0.503-0.65,0.308-1.015C275.733,59.652,275.278,59.512,274.912,59.71z"/>
				<path style="fill:#FFFFFF;" d="M302.424,34.525c-0.358-0.213-0.818-0.098-1.03,0.258c-1.016,1.688-2.108,3.339-3.249,4.91
					c-0.243,0.335-0.168,0.805,0.168,1.048c0.133,0.097,0.288,0.143,0.44,0.143c0.233,0,0.46-0.105,0.608-0.308
					c1.166-1.606,2.281-3.297,3.319-5.02C302.891,35.2,302.779,34.737,302.424,34.525z"/>
				<path style="fill:#FFFFFF;" d="M307.771,23.344c-0.385-0.15-0.82,0.038-0.973,0.423c-0.728,1.846-1.523,3.664-2.366,5.4
					c-0.183,0.375-0.027,0.823,0.345,1.003c0.105,0.053,0.218,0.078,0.328,0.078c0.278,0,0.545-0.158,0.675-0.423
					c0.86-1.773,1.673-3.627,2.416-5.508C308.347,23.932,308.159,23.497,307.771,23.344z"/>
				<path style="fill:#FFFFFF;" d="M312.621,0c-0.24,1.951-0.525,3.889-0.853,5.76c-0.073,0.408,0.2,0.798,0.61,0.868
					c0.042,0.01,0.087,0.012,0.13,0.012c0.358,0,0.673-0.258,0.738-0.62c0.338-1.929,0.633-3.925,0.878-5.933
					C314.127,0.06,314.13,0.03,314.13,0H312.621z"/>
				<path style="fill:#FFFFFF;" d="M311.376,11.481c-0.403-0.097-0.808,0.15-0.906,0.553c-0.465,1.941-0.99,3.857-1.558,5.7
					c-0.123,0.395,0.1,0.815,0.495,0.938c0.075,0.022,0.15,0.032,0.223,0.032c0.32,0,0.618-0.205,0.715-0.528
					c0.578-1.873,1.113-3.822,1.586-5.79C312.026,11.981,311.778,11.576,311.376,11.481z"/>
				<path style="fill:#FFFFFF;" d="M285.218,53.042c-1.533,1.191-3.149,2.341-4.802,3.419c-0.348,0.225-0.448,0.69-0.22,1.038
					c0.143,0.22,0.383,0.34,0.628,0.34c0.14,0,0.283-0.04,0.41-0.12c1.691-1.101,3.342-2.276,4.905-3.492
					c0.328-0.255,0.388-0.728,0.133-1.053C286.016,52.846,285.545,52.786,285.218,53.042z"/>
				<path style="fill:#FFFFFF;" d="M202.619,71.266c-1.946-0.125-3.942-0.273-5.933-0.445c-0.413-0.035-0.778,0.27-0.813,0.683
					c-0.035,0.413,0.27,0.778,0.683,0.813c2.004,0.173,4.01,0.323,5.968,0.445c0.015,0.003,0.033,0.003,0.048,0.003
					c0.393,0,0.723-0.305,0.748-0.703C203.347,71.648,203.031,71.291,202.619,71.266z"/>
				<path style="fill:#FFFFFF;" d="M214.997,71.728c-1.943-0.018-3.945-0.065-5.943-0.14c-0.415-0.018-0.763,0.308-0.778,0.723
					c-0.015,0.413,0.308,0.763,0.723,0.778c2.011,0.073,4.025,0.12,5.983,0.14h0.008c0.41,0,0.745-0.33,0.75-0.743
					C215.745,72.074,215.413,71.733,214.997,71.728z"/>
				<path style="fill:#FFFFFF;" d="M263.667,64.685c-1.816,0.658-3.709,1.276-5.623,1.839c-0.398,0.118-0.625,0.535-0.508,0.933
					c0.095,0.328,0.395,0.538,0.718,0.538c0.07,0,0.143-0.01,0.213-0.03c1.944-0.573,3.865-1.201,5.708-1.866
					c0.39-0.143,0.593-0.573,0.453-0.96C264.487,64.747,264.055,64.545,263.667,64.685z"/>
				<path style="fill:#FFFFFF;" d="M190.268,70.195c-1.938-0.213-3.927-0.448-5.91-0.7c-0.41-0.052-0.788,0.238-0.84,0.648
					c-0.053,0.41,0.238,0.788,0.65,0.84c1.991,0.255,3.989,0.493,5.938,0.703c0.028,0.003,0.055,0.005,0.083,0.005
					c0.378,0,0.703-0.285,0.745-0.67C190.978,70.61,190.68,70.24,190.268,70.195z"/>
				<path style="fill:#FFFFFF;" d="M227.371,71.471c-1.938,0.105-3.934,0.18-5.936,0.223c-0.415,0.01-0.743,0.353-0.733,0.768
					c0.007,0.408,0.343,0.733,0.748,0.733h0.018c2.016-0.042,4.03-0.118,5.986-0.225c0.413-0.02,0.73-0.375,0.708-0.788
					C228.139,71.766,227.786,71.448,227.371,71.471z"/>
				<path style="fill:#FFFFFF;" d="M251.838,68.154c-1.883,0.435-3.837,0.838-5.805,1.196c-0.408,0.073-0.678,0.463-0.605,0.87
					c0.068,0.363,0.383,0.618,0.738,0.618c0.045,0,0.09-0.005,0.135-0.012c1.993-0.36,3.969-0.768,5.875-1.211
					c0.405-0.092,0.655-0.498,0.563-0.9C252.646,68.309,252.241,68.059,251.838,68.154z"/>
				<path style="fill:#FFFFFF;" d="M239.685,70.34c-1.918,0.255-3.902,0.478-5.898,0.663c-0.413,0.037-0.715,0.405-0.678,0.818
					c0.038,0.388,0.365,0.68,0.748,0.68c0.023,0,0.045-0.002,0.07-0.002c2.013-0.188,4.017-0.413,5.955-0.67
					c0.41-0.055,0.7-0.43,0.645-0.843C240.473,70.575,240.097,70.288,239.685,70.34z"/>
			</g>
		</g>
		<g style="opacity:0.5;">
			<path style="fill:#FFFFFF;" d="M418.504,0c0.013,0.08,0.043,0.163,0.088,0.238c0.14,0.238,0.39,0.37,0.648,0.37
				c0.128,0,0.26-0.033,0.378-0.103c0.288-0.168,0.575-0.338,0.866-0.505H418.504z M414.33,2.879
				c-0.225-0.348-0.69-0.445-1.038-0.22c-1.701,1.111-3.379,2.261-4.985,3.419c-0.335,0.243-0.413,0.713-0.17,1.048
				c0.148,0.203,0.378,0.31,0.61,0.31c0.153,0,0.305-0.045,0.438-0.14c1.586-1.146,3.244-2.281,4.927-3.379
				C414.46,3.689,414.557,3.224,414.33,2.879z M404.155,10.163c-0.26-0.323-0.733-0.373-1.055-0.11
				c-1.583,1.278-3.129,2.599-4.597,3.927c-0.308,0.278-0.333,0.753-0.055,1.061c0.15,0.163,0.353,0.245,0.558,0.245
				c0.18,0,0.36-0.063,0.503-0.193c1.448-1.308,2.974-2.611,4.535-3.874C404.365,10.958,404.415,10.485,404.155,10.163z
				 M394.845,18.512c-0.298-0.288-0.773-0.28-1.06,0.017c-1.418,1.461-2.789,2.969-4.07,4.477c-0.27,0.318-0.23,0.79,0.085,1.058
				c0.143,0.12,0.315,0.178,0.485,0.178c0.213,0,0.425-0.087,0.573-0.263c1.261-1.486,2.606-2.966,4.002-4.407
				C395.15,19.275,395.143,18.802,394.845,18.512z M386.711,27.997c-0.335-0.243-0.803-0.168-1.048,0.168
				c-1.191,1.646-2.319,3.342-3.357,5.037c-0.217,0.353-0.108,0.815,0.248,1.033c0.123,0.072,0.258,0.11,0.39,0.11
				c0.253,0,0.5-0.128,0.64-0.36c1.018-1.663,2.129-3.327,3.297-4.94C387.124,28.709,387.048,28.239,386.711,27.997z
				 M380.138,38.604c-0.373-0.185-0.823-0.033-1.005,0.338c-0.9,1.813-1.726,3.677-2.456,5.535c-0.152,0.385,0.038,0.82,0.423,0.973
				c0.09,0.035,0.183,0.053,0.275,0.053c0.298,0,0.583-0.18,0.698-0.475c0.715-1.821,1.523-3.644,2.404-5.418
				C380.66,39.237,380.508,38.787,380.138,38.604z M375.495,50.175c-0.398-0.115-0.815,0.115-0.93,0.513
				c-0.553,1.928-1.03,3.91-1.416,5.885c-0.078,0.408,0.188,0.8,0.593,0.88c0.05,0.01,0.098,0.013,0.145,0.013
				c0.353,0,0.665-0.248,0.735-0.605c0.378-1.933,0.843-3.872,1.386-5.758C376.123,50.705,375.893,50.288,375.495,50.175z
				 M373.019,62.386c-0.41-0.04-0.78,0.26-0.823,0.673c-0.198,1.984-0.318,4.02-0.353,6.046c-0.008,0.415,0.323,0.755,0.735,0.763
				h0.015c0.408,0,0.743-0.328,0.75-0.735c0.035-1.986,0.15-3.979,0.345-5.926C373.732,62.796,373.432,62.426,373.019,62.386z
				 M374.104,81.486c-0.273-1.984-0.478-3.974-0.605-5.918c-0.027-0.413-0.388-0.728-0.798-0.7
				c-0.413,0.027-0.725,0.385-0.698,0.798c0.13,1.981,0.335,4.007,0.613,6.026c0.053,0.375,0.375,0.648,0.743,0.648
				c0.035,0,0.07-0.003,0.103-0.007C373.874,82.274,374.16,81.896,374.104,81.486z M376.616,93.627
				c-0.53-1.938-1.003-3.887-1.403-5.79c-0.085-0.405-0.483-0.663-0.888-0.578c-0.408,0.085-0.665,0.483-0.58,0.888
				c0.408,1.931,0.885,3.909,1.423,5.875c0.093,0.335,0.395,0.553,0.725,0.553c0.065,0,0.13-0.007,0.197-0.027
				C376.491,94.44,376.726,94.027,376.616,93.627z M380.55,105.398c-0.395-1.003-0.785-2.034-1.158-3.062
				c-0.305-0.843-0.605-1.696-0.888-2.534c-0.133-0.393-0.555-0.603-0.951-0.47c-0.393,0.132-0.603,0.558-0.47,0.95
				c0.285,0.848,0.588,1.711,0.898,2.564c0.375,1.043,0.77,2.086,1.173,3.102c0.118,0.295,0.4,0.475,0.698,0.475
				c0.093,0,0.185-0.015,0.275-0.053C380.513,106.218,380.703,105.783,380.55,105.398z M385.76,116.608
				c-0.93-1.718-1.828-3.502-2.669-5.303c-0.175-0.375-0.62-0.538-0.998-0.363c-0.375,0.178-0.538,0.623-0.363,0.998
				c0.853,1.828,1.766,3.639,2.709,5.383c0.135,0.25,0.395,0.393,0.66,0.393c0.12,0,0.243-0.03,0.358-0.09
				C385.82,117.429,385.958,116.974,385.76,116.608z M392.346,127.056c-1.158-1.591-2.281-3.242-3.337-4.905
				c-0.22-0.35-0.685-0.455-1.035-0.233c-0.348,0.22-0.453,0.685-0.23,1.035c1.07,1.691,2.211,3.367,3.389,4.985
				c0.145,0.203,0.375,0.308,0.605,0.308c0.155,0,0.31-0.045,0.443-0.143C392.516,127.859,392.589,127.391,392.346,127.056z
				 M400.263,136.543c-1.373-1.448-2.704-2.937-3.954-4.427c-0.268-0.318-0.74-0.36-1.058-0.093
				c-0.318,0.268-0.358,0.74-0.092,1.058c1.271,1.513,2.624,3.024,4.017,4.495c0.148,0.155,0.348,0.235,0.545,0.235
				c0.185,0,0.37-0.07,0.515-0.208C400.538,137.319,400.55,136.843,400.263,136.543z M409.295,145.045
				c-1.556-1.321-3.054-2.656-4.457-3.967c-0.303-0.283-0.778-0.268-1.06,0.035c-0.283,0.303-0.268,0.778,0.035,1.061
				c1.421,1.328,2.939,2.679,4.51,4.017c0.142,0.12,0.315,0.178,0.485,0.178c0.213,0,0.425-0.09,0.573-0.265
				C409.65,145.788,409.61,145.315,409.295,145.045z M419.067,152.724c-1.711-1.258-3.269-2.439-4.762-3.604
				c-0.328-0.255-0.801-0.198-1.053,0.13c-0.255,0.325-0.198,0.798,0.128,1.053c1.506,1.176,3.077,2.364,4.797,3.632
				c0.135,0.098,0.29,0.145,0.445,0.145c0.23,0,0.458-0.105,0.605-0.305C419.472,153.439,419.4,152.971,419.067,152.724z
				 M429.24,159.94c-1.453-1.008-3.174-2.204-4.912-3.432c-0.338-0.238-0.805-0.158-1.046,0.18c-0.238,0.34-0.158,0.808,0.18,1.048
				c1.743,1.228,3.467,2.426,4.922,3.437c0.13,0.09,0.28,0.135,0.428,0.135c0.238,0,0.47-0.113,0.615-0.323
				C429.665,160.643,429.58,160.178,429.24,159.94z M439.492,167.094c-1.443-1.026-3.004-2.124-4.913-3.452
				c-0.343-0.235-0.808-0.153-1.046,0.188c-0.235,0.34-0.153,0.808,0.188,1.045c1.903,1.326,3.462,2.419,4.9,3.442
				c0.133,0.095,0.285,0.14,0.435,0.14c0.235,0,0.465-0.11,0.613-0.315C439.91,167.804,439.83,167.334,439.492,167.094z
				 M449.547,174.557c-1.523-1.193-3.089-2.384-4.785-3.642c-0.333-0.245-0.803-0.178-1.051,0.155
				c-0.245,0.335-0.178,0.803,0.158,1.051c1.683,1.251,3.239,2.434,4.755,3.619c0.135,0.105,0.3,0.158,0.46,0.158
				c0.223,0,0.445-0.098,0.593-0.288C449.932,175.285,449.875,174.812,449.547,174.557z M459.155,182.609
				c-1.456-1.316-2.981-2.644-4.542-3.952c-0.315-0.265-0.79-0.225-1.055,0.093c-0.268,0.318-0.225,0.79,0.092,1.058
				c1.543,1.296,3.056,2.611,4.497,3.914c0.145,0.13,0.325,0.193,0.505,0.193c0.203,0,0.408-0.083,0.555-0.248
				C459.485,183.362,459.462,182.886,459.155,182.609z M468.091,191.401c-1.351-1.451-2.761-2.904-4.195-4.317
				c-0.295-0.29-0.77-0.288-1.06,0.008c-0.293,0.295-0.29,0.77,0.005,1.061c1.418,1.398,2.814,2.836,4.152,4.272
				c0.148,0.16,0.348,0.24,0.548,0.24c0.183,0,0.368-0.068,0.51-0.203C468.357,192.181,468.374,191.706,468.091,191.401z
				 M476.198,200.965c-1.221-1.586-2.494-3.162-3.779-4.685c-0.268-0.315-0.743-0.355-1.058-0.087
				c-0.318,0.268-0.358,0.74-0.09,1.058c1.273,1.506,2.531,3.064,3.739,4.632c0.148,0.19,0.37,0.29,0.595,0.29
				c0.16,0,0.32-0.05,0.458-0.155C476.391,201.766,476.453,201.293,476.198,200.965z M483.397,211.231
				c-1.078-1.693-2.201-3.377-3.339-5.008c-0.238-0.34-0.705-0.423-1.046-0.185c-0.34,0.235-0.423,0.703-0.185,1.043
				c1.126,1.613,2.236,3.282,3.304,4.955c0.143,0.225,0.385,0.348,0.633,0.348c0.138,0,0.278-0.037,0.403-0.118
				C483.517,212.044,483.619,211.581,483.397,211.231z M489.677,222.076c-0.938-1.783-1.916-3.557-2.904-5.27
				c-0.208-0.36-0.665-0.483-1.023-0.275c-0.36,0.208-0.483,0.665-0.278,1.025c0.98,1.696,1.946,3.454,2.876,5.22
				c0.135,0.255,0.395,0.4,0.665,0.4c0.118,0,0.235-0.028,0.348-0.088C489.73,222.896,489.87,222.444,489.677,222.076z
				 M495.092,233.377c-0.805-1.848-1.646-3.689-2.496-5.475c-0.178-0.373-0.625-0.533-1-0.353c-0.373,0.178-0.533,0.625-0.355,1.001
				c0.845,1.768,1.678,3.594,2.476,5.425c0.122,0.283,0.4,0.45,0.688,0.45c0.1,0,0.203-0.02,0.3-0.063
				C495.085,234.197,495.258,233.754,495.092,233.377z M499.725,245.015c-0.688-1.896-1.403-3.787-2.131-5.625
				c-0.153-0.385-0.59-0.573-0.973-0.42c-0.385,0.153-0.575,0.588-0.423,0.973c0.723,1.823,1.433,3.702,2.116,5.583
				c0.11,0.305,0.398,0.495,0.705,0.495c0.085,0,0.17-0.015,0.255-0.045C499.665,245.835,499.865,245.403,499.725,245.015z"/>
		</g>
	</g>
	<g>
		<path style="fill:#FFFFFF;" d="M67.229,178.763c-9.342,1.054-10.196,1.908-11.25,11.25c-1.054-9.342-1.908-10.196-11.25-11.25
			c9.342-1.054,10.196-1.908,11.25-11.25C57.033,176.855,57.887,177.709,67.229,178.763z"/>
		<path style="fill:#FFFFFF;" d="M334.796,64.641c-9.342,1.054-10.196,1.908-11.25,11.25c-1.054-9.342-1.908-10.196-11.25-11.25
			c9.342-1.054,10.196-1.908,11.25-11.25C324.6,62.733,325.454,63.587,334.796,64.641z"/>
		<path style="fill:#FFFFFF;" d="M477.264,136.652c-9.342,1.054-10.196,1.908-11.25,11.25c-1.054-9.342-1.908-10.196-11.25-11.25
			c9.342-1.054,10.196-1.908,11.25-11.25C467.068,134.744,467.922,135.598,477.264,136.652z"/>
	</g>
	<g>
		<ellipse style="fill:#008062;" cx="257.098" cy="369.163" rx="144.394" ry="6.51"/>
		<g>
			
				<linearGradient id="SVGID_00000083803864884071462120000002290324352529887636_" gradientUnits="userSpaceOnUse" x1="256.1748" y1="114.4158" x2="254.4583" y2="276.9135">
				<stop  offset="0" style="stop-color:#19456C"/>
				<stop  offset="0.2486" style="stop-color:#183F63"/>
				<stop  offset="0.6605" style="stop-color:#162E49"/>
				<stop  offset="0.9944" style="stop-color:#131E30"/>
			</linearGradient>
			<path style="fill:url(#SVGID_00000083803864884071462120000002290324352529887636_);" d="M419.834,121.871v166.688H90.598
				V121.871c0-8.798,7.132-15.927,15.927-15.927h297.383C412.706,105.944,419.834,113.073,419.834,121.871z"/>
			
				<linearGradient id="SVGID_00000146468398767981145660000016349696299558229903_" gradientUnits="userSpaceOnUse" x1="255.2684" y1="130.9219" x2="255.2684" y2="105.7393">
				<stop  offset="0" style="stop-color:#D2D2D2"/>
				<stop  offset="0.3082" style="stop-color:#DBDBDB"/>
				<stop  offset="0.8191" style="stop-color:#F5F5F5"/>
				<stop  offset="0.9944" style="stop-color:#FFFFFF"/>
			</linearGradient>
			<path style="fill:url(#SVGID_00000146468398767981145660000016349696299558229903_);" d="M276.024,115.234h-41.512
				c-0.899,0-1.629-0.729-1.629-1.629v-0.494c0-0.899,0.729-1.629,1.629-1.629h41.512c0.9,0,1.629,0.729,1.629,1.629v0.494
				C277.653,114.505,276.924,115.234,276.024,115.234z"/>
			
				<linearGradient id="SVGID_00000170973258641894280520000007967379837994348978_" gradientUnits="userSpaceOnUse" x1="259.6801" y1="182.7697" x2="250.5254" y2="316.0858">
				<stop  offset="0" style="stop-color:#19456C"/>
				<stop  offset="0.2486" style="stop-color:#183F63"/>
				<stop  offset="0.6605" style="stop-color:#162E49"/>
				<stop  offset="0.9944" style="stop-color:#131E30"/>
			</linearGradient>
			
				<rect x="90.651" y="205.476" style="fill:url(#SVGID_00000170973258641894280520000007967379837994348978_);" width="329.235" height="83.084"/>
			
				<linearGradient id="SVGID_00000052797122262537709480000009122279133165663414_" gradientUnits="userSpaceOnUse" x1="255.217" y1="443.9015" x2="255.217" y2="259.0822">
				<stop  offset="0" style="stop-color:#D2D2D2"/>
				<stop  offset="0.3082" style="stop-color:#DBDBDB"/>
				<stop  offset="0.8191" style="stop-color:#F5F5F5"/>
				<stop  offset="0.9944" style="stop-color:#FFFFFF"/>
			</linearGradient>
			<path style="fill:url(#SVGID_00000052797122262537709480000009122279133165663414_);" d="M408.673,124.119V268.54
				c0,1.98-1.603,3.588-3.588,3.588H105.344c-0.749,0-1.447-0.23-2.021-0.625c-0.942-0.648-1.562-1.732-1.562-2.964V124.119
				c0-1.98,1.604-3.588,3.584-3.588h299.741c1.25,0,2.352,0.634,2.991,1.604C408.457,122.704,408.673,123.384,408.673,124.119z"/>
			<path style="fill:#FFFFFF;" d="M98.886,307.56c0.423,0.397,0.862,0.778,1.312,1.148C99.748,308.343,99.309,307.957,98.886,307.56
				z"/>
			
				<linearGradient id="SVGID_00000065045312723885963730000014270449560985574302_" gradientUnits="userSpaceOnUse" x1="255.2677" y1="324.0517" x2="255.2677" y2="291.8427">
				<stop  offset="0" style="stop-color:#D2D2D2"/>
				<stop  offset="0.3082" style="stop-color:#DBDBDB"/>
				<stop  offset="0.8191" style="stop-color:#F5F5F5"/>
				<stop  offset="0.9944" style="stop-color:#FFFFFF"/>
			</linearGradient>
			<path style="fill:url(#SVGID_00000065045312723885963730000014270449560985574302_);" d="M419.883,288.559
				c0,4.365-1.069,8.482-2.969,12.091c-1.228,2.344-2.799,4.471-4.656,6.323c-2.794,2.799-6.228,4.963-10.059,6.26
				c-2.625,0.884-5.434,1.365-8.355,1.365H116.691c-5.011,0-9.688-1.413-13.657-3.863c-0.995-0.614-1.942-1.291-2.836-2.027
				c-0.45-0.37-0.889-0.751-1.312-1.148c-0.212-0.201-0.418-0.402-0.624-0.608c-1.847-1.847-3.413-3.969-4.635-6.302
				c-1.905-3.609-2.974-7.725-2.974-12.091H419.883z"/>
			
				<linearGradient id="SVGID_00000067230306192085145030000016911327822559383727_" gradientUnits="userSpaceOnUse" x1="255.2208" y1="230.9356" x2="255.2208" y2="84.6104">
				<stop  offset="0" style="stop-color:#19456C"/>
				<stop  offset="0.2486" style="stop-color:#183F63"/>
				<stop  offset="0.6605" style="stop-color:#162E49"/>
				<stop  offset="0.9944" style="stop-color:#131E30"/>
			</linearGradient>
			<path style="fill:url(#SVGID_00000067230306192085145030000016911327822559383727_);" d="M279.867,300.272v0.767
				c0,1.666-1.362,3.027-3.027,3.027h-43.239c-1.665,0-3.027-1.361-3.027-3.027v-0.767c0-1.666,1.362-3.027,3.027-3.027h43.239
				C278.506,297.245,279.867,298.606,279.867,300.272z"/>
			
				<linearGradient id="SVGID_00000108271012760926194510000016122568494905974935_" gradientUnits="userSpaceOnUse" x1="255.2684" y1="277.6378" x2="255.2684" y2="360.5032">
				<stop  offset="0" style="stop-color:#D2D2D2"/>
				<stop  offset="0.3082" style="stop-color:#DBDBDB"/>
				<stop  offset="0.8191" style="stop-color:#F5F5F5"/>
				<stop  offset="0.9944" style="stop-color:#FFFFFF"/>
			</linearGradient>
			
				<rect x="206.596" y="314.601" style="fill:url(#SVGID_00000108271012760926194510000016122568494905974935_);" width="97.344" height="40.612"/>
			
				<linearGradient id="SVGID_00000056404434544435074650000011507351950674624446_" gradientUnits="userSpaceOnUse" x1="254.7958" y1="335.2145" x2="251.3629" y2="430.9064">
				<stop  offset="0" style="stop-color:#D2D2D2"/>
				<stop  offset="0.3082" style="stop-color:#DBDBDB"/>
				<stop  offset="0.8191" style="stop-color:#F5F5F5"/>
				<stop  offset="0.9944" style="stop-color:#FFFFFF"/>
			</linearGradient>
			
				<rect x="206.596" y="314.601" style="fill:url(#SVGID_00000056404434544435074650000011507351950674624446_);" width="97.344" height="14.881"/>
			
				<linearGradient id="SVGID_00000079444637527556272750000008865507485908659333_" gradientUnits="userSpaceOnUse" x1="255.2684" y1="377.243" x2="255.2684" y2="350.884">
				<stop  offset="0" style="stop-color:#D2D2D2"/>
				<stop  offset="0.3082" style="stop-color:#DBDBDB"/>
				<stop  offset="0.8191" style="stop-color:#F5F5F5"/>
				<stop  offset="0.9944" style="stop-color:#FFFFFF"/>
			</linearGradient>
			<path style="fill:url(#SVGID_00000079444637527556272750000008865507485908659333_);" d="M338.972,369.163H171.565v-9.554
				c0-2.428,1.968-4.397,4.397-4.397h158.614c2.428,0,4.397,1.968,4.397,4.396V369.163z"/>
			<path style="opacity:0.5;fill:#171721;" d="M279.867,300.655v0.383c0,1.666-1.362,3.027-3.027,3.027h-43.239
				c-1.665,0-3.027-1.361-3.027-3.027v-0.383H279.867z"/>
			<g>
				
					<linearGradient id="SVGID_00000065783133933856366470000017788316825090098575_" gradientUnits="userSpaceOnUse" x1="255.2161" y1="99.3526" x2="255.2161" y2="228.4198">
					<stop  offset="0" style="stop-color:#19456C"/>
					<stop  offset="0.2486" style="stop-color:#183F63"/>
					<stop  offset="0.6605" style="stop-color:#162E49"/>
					<stop  offset="0.9944" style="stop-color:#131E30"/>
				</linearGradient>
				
					<circle style="opacity:0.1;fill:url(#SVGID_00000065783133933856366470000017788316825090098575_);" cx="255.216" cy="197.194" r="68.304"/>
				<g>
					
						<linearGradient id="SVGID_00000115513002833574253010000012643762126228426128_" gradientUnits="userSpaceOnUse" x1="255.6581" y1="243.6003" x2="252.925" y2="174.8195">
						<stop  offset="0" style="stop-color:#19456C"/>
						<stop  offset="0.2486" style="stop-color:#183F63"/>
						<stop  offset="0.6605" style="stop-color:#162E49"/>
						<stop  offset="0.9944" style="stop-color:#131E30"/>
					</linearGradient>
					<path style="fill:url(#SVGID_00000115513002833574253010000012643762126228426128_);" d="M208.114,178.724v46.632
						c30.651,9.145,61.246,9.179,91.784,0v-46.632H208.114z"/>
					
						<linearGradient id="SVGID_00000120536955220450499380000006158645520104821694_" gradientUnits="userSpaceOnUse" x1="253.7963" y1="166.868" x2="256.7186" y2="223.6443">
						<stop  offset="0" style="stop-color:#19456C"/>
						<stop  offset="0.2486" style="stop-color:#183F63"/>
						<stop  offset="0.6605" style="stop-color:#162E49"/>
						<stop  offset="0.9944" style="stop-color:#131E30"/>
					</linearGradient>
					<polygon style="fill:url(#SVGID_00000120536955220450499380000006158645520104821694_);" points="255.971,191.386 
						170.195,173.427 255.971,150.282 338.073,173.427 					"/>
					<g>
						<path style="fill:#FDB900;" d="M304.928,234.764c-0.503,0-0.911-0.408-0.911-0.911v-52.436l-50.197-10.51
							c-0.492-0.103-0.808-0.586-0.705-1.078c0.103-0.493,0.586-0.807,1.079-0.705l50.921,10.661
							c0.422,0.088,0.724,0.46,0.724,0.892v53.176C305.839,234.356,305.431,234.764,304.928,234.764z"/>
					</g>
					
						<linearGradient id="SVGID_00000111908241901725396440000005685483345419988903_" gradientUnits="userSpaceOnUse" x1="253.6256" y1="157.9563" x2="254.6885" y2="173.7477">
						<stop  offset="0" style="stop-color:#19456C"/>
						<stop  offset="0.2486" style="stop-color:#183F63"/>
						<stop  offset="0.6605" style="stop-color:#162E49"/>
						<stop  offset="0.9944" style="stop-color:#131E30"/>
					</linearGradient>
					<path style="fill:url(#SVGID_00000111908241901725396440000005685483345419988903_);" d="M262.434,170.016
						c0,1.565-3.58,2.834-7.997,2.834s-7.997-1.269-7.997-2.834c0-1.565,3.58-2.834,7.997-2.834S262.434,168.45,262.434,170.016z"/>
					<g>
						<g>
							<path style="fill:#FDB900;" d="M311.626,251.852c-0.541,0.252-1.081,0.474-1.622,0.662c-0.371,0.134-0.741,0.249-1.112,0.349
								c-0.878,0.246-1.752,0.41-2.63,0.495c-0.37,0.036-0.744,0.058-1.115,0.067c-1.151,0.021-2.305-0.091-3.456-0.34
								c-0.398-0.085-0.793-0.185-1.187-0.307c-0.811-0.24-1.622-0.55-2.432-0.926c-0.349-0.161-0.528-0.559-0.407-0.926
								l5.293-16.138c0.598-1.825,3.18-1.825,3.778,0l5.296,16.138C312.154,251.294,311.975,251.691,311.626,251.852z"/>
							<path style="fill:#FD9801;" d="M301.692,253.085c-0.398-0.085-0.793-0.185-1.187-0.307l0.926-3.753L301.692,253.085z"/>
							<path style="fill:#FD9801;" d="M310.004,252.514c-0.371,0.134-0.741,0.249-1.112,0.349l-0.932-8.218L310.004,252.514z"/>
							<path style="fill:#FD9801;" d="M306.263,253.359c-0.37,0.036-0.744,0.058-1.115,0.067l0.258-4.959L306.263,253.359z"/>
						</g>
						<circle style="fill:#FD9801;" cx="304.849" cy="234.498" r="2.936"/>
					</g>
				</g>
			</g>
		</g>
	</g>
	<g>
		<path style="fill:#008062;" d="M33.959,411.007l-13.976,12.654c-0.973,0.881-0.35,2.497,0.963,2.497h92.94
			c4.746,0,9.264-2.036,12.408-5.591l16.564-18.729c3.303-3.734,0.651-9.618-4.334-9.618H54.624c-0.364,0-0.714,0.138-0.979,0.386
			L33.959,411.007z"/>
		<g>
			<g>
				<g>
					<g>
						<path style="fill:#FFFFFF;" d="M121.848,405.944c-0.443,1.443-1.01,2.489-1.01,2.489c-0.65-8.488-10.491-7.603-10.491-7.603
							H27.584v16.744h90.125l5.094-9.795L121.848,405.944z"/>
						<path style="fill:#D0D0D0;" d="M120.838,408.433c0,0,0.568-1.047,1.01-2.489l-4.139-7.959H27.584v2.846h82.763
							C110.347,400.831,120.188,399.945,120.838,408.433z"/>
					</g>
					<path style="fill:#0459BC;" d="M134.373,376.39l-8.77,8.126l-3.703,3.43l-10.832,10.037H27.583c-1.069,0-1.94-0.871-1.94-1.94
						c0-0.856,0.562-1.591,1.337-1.844l11.719-6.252l8.932-4.767l13.806-7.367h70.342
						C131.779,375.812,132.863,375.939,134.373,376.39z"/>
					<g>
						<polygon style="fill:#093F9D;" points="77.201,375.812 40.723,397.983 31.35,397.983 68.803,375.812 						"/>
					</g>
					<g>
						<g>
							<g>
								<path style="fill:#D0D0D0;" d="M27.584,404.693h83.126c0.361,0,0.653-0.293,0.653-0.653c0-0.361-0.293-0.653-0.653-0.653
									H27.584V404.693z"/>
							</g>
						</g>
						<g>
							<g>
								<path style="fill:#D0D0D0;" d="M27.584,409.221h83.126c0.361,0,0.653-0.293,0.653-0.653c0-0.361-0.293-0.654-0.653-0.654
									H27.584V409.221z"/>
							</g>
						</g>
						<g>
							<g>
								<path style="fill:#D0D0D0;" d="M27.584,413.748h83.126c0.361,0,0.653-0.293,0.653-0.654c0-0.361-0.293-0.653-0.653-0.653
									H27.584V413.748z"/>
							</g>
						</g>
					</g>
					<path style="fill:#093F9D;" d="M134.639,376.471L134.639,376.471c-1.308-0.462-2.858-0.659-2.858-0.659l-5.466,0.022
						l-0.006,0.067l-9.405-0.046l-8.861,9.707l-11.399,12.423h14.422c5.401,0,9.795,4.394,9.795,9.795
						c0,5.401-4.394,9.794-9.794,9.795H27.584c-1.069,0-1.943,0.874-1.943,1.943c0,1.068,0.874,1.943,1.943,1.943h83.481
						c0,0,0,0,0.001,0h0.217c0.068,0,0.135-0.004,0.201-0.011c4.026-0.122,7.619-1.99,10.047-4.871
						c4.709-4.859,20.046-20.962,21.402-25.957C145.462,381.307,138.72,377.747,134.639,376.471z"/>
				</g>
			</g>
			<g>
				<g>
					<g>
						<path style="fill:#FFFFFF;" d="M121.848,378.291c-0.443,1.443-1.01,2.489-1.01,2.489c-0.65-8.488-10.491-7.603-10.491-7.603
							H27.584v16.744h90.125l5.094-9.795L121.848,378.291z"/>
						<path style="fill:#D0D0D0;" d="M120.838,380.78c0,0,0.568-1.047,1.01-2.489l-4.139-7.959H27.584v2.845h82.763
							C110.347,373.178,120.188,372.292,120.838,380.78z"/>
					</g>
					<path style="fill:#FD3F2C;" d="M134.373,348.737l-8.77,8.126l-3.703,3.43l-10.832,10.036H27.583c-1.069,0-1.94-0.871-1.94-1.94
						c0-0.856,0.562-1.591,1.337-1.844l11.719-6.252l8.932-4.767l13.806-7.367h70.342
						C131.779,348.159,132.863,348.286,134.373,348.737z"/>
					<g>
						<polygon style="fill:#D7212E;" points="77.201,348.159 40.723,370.33 31.35,370.33 68.803,348.159 						"/>
					</g>
					<g>
						<g>
							<g>
								<path style="fill:#D0D0D0;" d="M27.584,377.04h83.126c0.361,0,0.653-0.293,0.653-0.653c0-0.361-0.293-0.653-0.653-0.653
									H27.584V377.04z"/>
							</g>
						</g>
						<g>
							<g>
								<path style="fill:#D0D0D0;" d="M27.584,381.568h83.126c0.361,0,0.653-0.293,0.653-0.653c0-0.361-0.293-0.654-0.653-0.654
									H27.584V381.568z"/>
							</g>
						</g>
						<g>
							<g>
								<path style="fill:#D0D0D0;" d="M27.584,386.095h83.126c0.361,0,0.653-0.293,0.653-0.654c0-0.361-0.293-0.653-0.653-0.653
									H27.584V386.095z"/>
							</g>
						</g>
					</g>
					<path style="fill:#D7212E;" d="M134.639,348.818L134.639,348.818c-1.308-0.462-2.858-0.659-2.858-0.659l-5.466,0.023
						l-0.006,0.067l-9.405-0.046l-8.861,9.707l-11.399,12.423h14.422c5.401,0,9.795,4.394,9.795,9.795
						c0,5.401-4.394,9.794-9.794,9.795H27.584c-1.069,0-1.943,0.874-1.943,1.943c0,1.068,0.874,1.943,1.943,1.943h83.481
						c0,0,0,0,0.001,0h0.217c0.068,0,0.135-0.004,0.201-0.011c4.026-0.122,7.619-1.991,10.047-4.871
						c4.709-4.859,20.046-20.962,21.402-25.957C145.462,353.655,138.72,350.095,134.639,348.818z"/>
				</g>
			</g>
			<g>
				<g>
					<g>
						<path style="fill:#FFFFFF;" d="M121.848,350.455c-0.443,1.443-1.01,2.49-1.01,2.49c-0.65-8.488-10.491-7.603-10.491-7.603
							H27.584v16.744h90.125l5.094-9.795L121.848,350.455z"/>
						<path style="fill:#D0D0D0;" d="M120.838,352.945c0,0,0.568-1.047,1.01-2.49l-4.139-7.959H27.584v2.845h82.763
							C110.347,345.342,120.188,344.456,120.838,352.945z"/>
					</g>
					<path style="fill:#FDB900;" d="M134.373,320.901l-8.77,8.126l-3.703,3.43l-10.832,10.036H27.583c-1.069,0-1.94-0.871-1.94-1.94
						c0-0.856,0.562-1.591,1.337-1.844l11.719-6.252l8.932-4.768l13.806-7.366h70.342
						C131.779,320.324,132.863,320.45,134.373,320.901z"/>
					<g>
						<polygon style="fill:#FD9801;" points="77.201,320.324 40.723,342.494 31.35,342.494 68.803,320.324 						"/>
					</g>
					<g>
						<g>
							<g>
								<path style="fill:#D0D0D0;" d="M27.584,349.205h83.126c0.361,0,0.653-0.293,0.653-0.653c0-0.361-0.293-0.653-0.653-0.653
									H27.584V349.205z"/>
							</g>
						</g>
						<g>
							<g>
								<path style="fill:#D0D0D0;" d="M27.584,353.732h83.126c0.361,0,0.653-0.293,0.653-0.653c0-0.361-0.293-0.654-0.653-0.654
									H27.584V353.732z"/>
							</g>
						</g>
						<g>
							<g>
								<path style="fill:#D0D0D0;" d="M27.584,358.259h83.126c0.361,0,0.653-0.293,0.653-0.654c0-0.361-0.293-0.653-0.653-0.653
									H27.584V358.259z"/>
							</g>
						</g>
					</g>
					<path style="fill:#FD9801;" d="M134.639,320.982L134.639,320.982c-1.308-0.462-2.858-0.659-2.858-0.659l-5.466,0.022
						l-0.006,0.067l-9.405-0.046l-8.861,9.707l-11.399,12.423h14.422c5.401,0,9.795,4.394,9.795,9.795
						c0,5.401-4.394,9.794-9.794,9.795H27.584c-1.069,0-1.943,0.874-1.943,1.943c0,1.068,0.874,1.943,1.943,1.943h83.481
						c0,0,0,0,0.001,0h0.217c0.068,0,0.135-0.004,0.201-0.011c4.026-0.122,7.619-1.99,10.047-4.871
						c4.709-4.859,20.046-20.962,21.402-25.957C145.462,325.819,138.72,322.259,134.639,320.982z"/>
				</g>
			</g>
		</g>
	</g>
	<g>
		<path style="fill:#008062;" d="M411.21,378.134c0,3.75-12.228,6.791-27.313,6.791c-15.084,0-27.313-3.04-27.313-6.791
			c0-3.751,12.228-6.791,27.313-6.791C398.982,371.343,411.21,374.384,411.21,378.134z"/>
		<g>
			<path style="fill:#093F9D;" d="M356.585,315.828c0,0,14.471-1.592,25.551-1.592c11.08,0,29.074,1.592,29.074,1.592
				s-11.737,5.921-27.313,5.921S356.585,315.828,356.585,315.828z"/>
			<g>
				<g>
					
						<rect x="365.385" y="298.773" transform="matrix(0.9973 -0.0738 0.0738 0.9973 -23.3863 28.1666)" style="fill:#FDB900;" width="8.464" height="63.813"/>
					<polygon style="fill:#FAB08D;" points="371.485,298.549 363.043,299.173 365.378,292.946 366.588,289.724 368.259,292.733 
											"/>
					
						<linearGradient id="SVGID_00000011006181856388639150000012304806344382075551_" gradientUnits="userSpaceOnUse" x1="478.1648" y1="203.4399" x2="531.6128" y2="85.357" gradientTransform="matrix(0.938 -0.3466 0.3466 0.938 -148.6485 354.9948)">
						<stop  offset="0" style="stop-color:#19456C"/>
						<stop  offset="0.2486" style="stop-color:#183F63"/>
						<stop  offset="0.6605" style="stop-color:#162E49"/>
						<stop  offset="0.9944" style="stop-color:#131E30"/>
					</linearGradient>
					<polygon style="fill:url(#SVGID_00000011006181856388639150000012304806344382075551_);" points="376.191,362.187 
						367.75,362.811 367.408,358.188 375.849,357.563 					"/>
					<path style="fill:#FD3F2C;" d="M375.267,365.961l-6.047,0.447c-0.661,0.049-1.237-0.448-1.286-1.109l-0.184-2.488l8.441-0.624
						l0.184,2.488C376.424,365.337,375.928,365.912,375.267,365.961z"/>
					
						<linearGradient id="SVGID_00000139274219262916044450000004816289411086857381_" gradientUnits="userSpaceOnUse" x1="469.2798" y1="199.4194" x2="522.725" y2="81.3427" gradientTransform="matrix(0.938 -0.3466 0.3466 0.938 -148.6485 354.9948)">
						<stop  offset="0" style="stop-color:#19456C"/>
						<stop  offset="0.2486" style="stop-color:#183F63"/>
						<stop  offset="0.6605" style="stop-color:#162E49"/>
						<stop  offset="0.9944" style="stop-color:#131E30"/>
					</linearGradient>
					<polygon style="fill:url(#SVGID_00000139274219262916044450000004816289411086857381_);" points="368.259,292.733 
						365.378,292.946 366.588,289.724 					"/>
					
						<rect x="367.274" y="354.555" transform="matrix(0.9973 -0.0738 0.0738 0.9973 -25.262 28.3718)" style="fill:#FD9801;" width="8.464" height="3.325"/>
					<path style="fill:#FD9801;" d="M365.374,302.152l3.486,47.128c0.026,0.356,0.336,0.623,0.692,0.597l0,0
						c0.356-0.027,0.624-0.336,0.597-0.692l-3.485-47.128c-0.026-0.356-0.337-0.623-0.693-0.597l0,0
						C365.615,301.486,365.347,301.796,365.374,302.152z"/>
					<path style="fill:#FD9801;" d="M368.675,301.905l3.485,47.128c0.026,0.356,0.336,0.623,0.692,0.597l0,0
						c0.356-0.026,0.624-0.336,0.597-0.692l-3.485-47.128c-0.027-0.356-0.337-0.623-0.693-0.597l0,0
						C368.916,301.239,368.649,301.549,368.675,301.905z"/>
				</g>
			</g>
			<g>
				<g>
					
						<rect x="379.541" y="294.377" transform="matrix(-0.9974 -0.0726 0.0726 -0.9974 742.838 679.5754)" style="fill:#FDB900;" width="8.464" height="63.813"/>
					<polygon style="fill:#FAB08D;" points="377.235,357.797 385.678,358.412 382.459,364.231 380.791,367.243 379.577,364.022 
											"/>
					
						<linearGradient id="SVGID_00000005952520330553224550000000444278675724874173_" gradientUnits="userSpaceOnUse" x1="1607.9081" y1="1033.9268" x2="1661.3496" y2="915.8582" gradientTransform="matrix(-0.9786 0.206 -0.206 -0.9786 2176.7163 957.8638)">
						<stop  offset="0" style="stop-color:#19456C"/>
						<stop  offset="0.2486" style="stop-color:#183F63"/>
						<stop  offset="0.6605" style="stop-color:#162E49"/>
						<stop  offset="0.9944" style="stop-color:#131E30"/>
					</linearGradient>
					<polygon style="fill:url(#SVGID_00000005952520330553224550000000444278675724874173_);" points="381.869,294.154 
						390.311,294.768 389.975,299.392 381.533,298.778 					"/>
					<path style="fill:#FD3F2C;" d="M383.335,290.555l6.048,0.441c0.661,0.048,1.158,0.623,1.11,1.284l-0.181,2.488l-8.442-0.615
						l0.181-2.489C382.099,291.004,382.674,290.507,383.335,290.555z"/>
					
						<linearGradient id="SVGID_00000115479174185165650760000008528889851097222065_" gradientUnits="userSpaceOnUse" x1="1599.026" y1="1029.9066" x2="1652.467" y2="911.8392" gradientTransform="matrix(-0.9786 0.206 -0.206 -0.9786 2176.7163 957.8638)">
						<stop  offset="0" style="stop-color:#19456C"/>
						<stop  offset="0.2486" style="stop-color:#183F63"/>
						<stop  offset="0.6605" style="stop-color:#162E49"/>
						<stop  offset="0.9944" style="stop-color:#131E30"/>
					</linearGradient>
					<polygon style="fill:url(#SVGID_00000115479174185165650760000008528889851097222065_);" points="379.577,364.022 
						382.459,364.231 380.791,367.243 					"/>
					
						<rect x="383.971" y="296.511" transform="matrix(0.0726 -0.9974 0.9974 0.0726 57.6821 663.5204)" style="fill:#FD9801;" width="3.325" height="8.464"/>
					<path style="fill:#FD9801;" d="M383.807,355.124l3.432-47.132c0.026-0.356-0.242-0.666-0.598-0.692l0,0
						c-0.356-0.026-0.666,0.242-0.692,0.598l-3.432,47.132c-0.026,0.356,0.242,0.666,0.598,0.692l0,0
						C383.471,355.748,383.781,355.48,383.807,355.124z"/>
					<path style="fill:#FD9801;" d="M380.504,354.887l3.432-47.132c0.026-0.356-0.242-0.666-0.598-0.692l0,0
						c-0.356-0.026-0.666,0.242-0.692,0.598l-3.432,47.132c-0.026,0.356,0.242,0.666,0.598,0.692l0,0
						C380.169,355.511,380.479,355.243,380.504,354.887z"/>
				</g>
			</g>
			<g>
				<g>
					
						<rect x="395.769" y="297.868" transform="matrix(-0.977 -0.2132 0.2132 -0.977 720.5088 737.238)" style="fill:#FDB900;" width="8.464" height="63.813"/>
					<polygon style="fill:#FAB08D;" points="389.065,360.044 397.335,361.849 393.324,367.153 391.247,369.898 390.502,366.537 
											"/>
					
						<linearGradient id="SVGID_00000051358229052802413150000002743080534880084624_" gradientUnits="userSpaceOnUse" x1="1649.0127" y1="946.5747" x2="1702.455" y2="828.5047" gradientTransform="matrix(-0.9979 0.0653 -0.0653 -0.9979 2120.6924 1119.0978)">
						<stop  offset="0" style="stop-color:#19456C"/>
						<stop  offset="0.2486" style="stop-color:#183F63"/>
						<stop  offset="0.6605" style="stop-color:#162E49"/>
						<stop  offset="0.9944" style="stop-color:#131E30"/>
					</linearGradient>
					<polygon style="fill:url(#SVGID_00000051358229052802413150000002743080534880084624_);" points="402.668,297.699 
						410.938,299.503 409.949,304.033 401.679,302.229 					"/>
					<path style="fill:#FD3F2C;" d="M404.629,294.344l5.924,1.293c0.648,0.141,1.058,0.781,0.917,1.429l-0.532,2.438l-8.27-1.804
						l0.532-2.438C403.341,294.613,403.981,294.203,404.629,294.344z"/>
					
						<linearGradient id="SVGID_00000160877201942114669020000005274585356421794714_" gradientUnits="userSpaceOnUse" x1="1640.1313" y1="942.5535" x2="1693.5723" y2="824.4863" gradientTransform="matrix(-0.9979 0.0653 -0.0653 -0.9979 2120.6924 1119.0978)">
						<stop  offset="0" style="stop-color:#19456C"/>
						<stop  offset="0.2486" style="stop-color:#183F63"/>
						<stop  offset="0.6605" style="stop-color:#162E49"/>
						<stop  offset="0.9944" style="stop-color:#131E30"/>
					</linearGradient>
					<polygon style="fill:url(#SVGID_00000160877201942114669020000005274585356421794714_);" points="390.502,366.537 
						393.324,367.153 391.247,369.898 					"/>
					
						<rect x="403.798" y="300.523" transform="matrix(0.2132 -0.977 0.977 0.2132 21.2781 635.931)" style="fill:#FD9801;" width="3.325" height="8.464"/>
					<path style="fill:#FD9801;" d="M395.949,358.329l10.074-46.17c0.076-0.349-0.145-0.693-0.494-0.77l0,0
						c-0.349-0.076-0.694,0.145-0.769,0.494l-10.074,46.171c-0.076,0.349,0.145,0.693,0.494,0.77l0,0
						C395.528,358.899,395.873,358.678,395.949,358.329z"/>
					<path style="fill:#FD9801;" d="M392.713,357.626l10.074-46.171c0.076-0.349-0.145-0.693-0.494-0.769l0,0
						c-0.349-0.076-0.694,0.145-0.77,0.494l-10.074,46.17c-0.076,0.349,0.145,0.694,0.494,0.77l0,0
						C392.293,358.196,392.637,357.975,392.713,357.626z"/>
				</g>
			</g>
			<path style="fill:#0459BC;" d="M411.209,315.828c0,0,0,0.002-0.003,0.01l-7.986,60.942c-12.883,6.621-25.765,6.621-38.648,0
				l-0.901-6.878v-0.003l-7.087-54.07C374.794,322.57,393,322.57,411.209,315.828z"/>
			<path style="fill:#093F9D;" d="M411.207,315.838l-7.986,60.942c-12.883,6.621-25.765,6.621-38.648,0l-0.901-6.878v-0.003
				c0,0,13.859,8.052,25.393,1.397C401.67,364.022,411.051,316.593,411.207,315.838z"/>
		</g>
	</g>
	<g>
		<path style="fill:#008062;" d="M384.499,399.155c0,3.374,22.281,6.11,49.767,6.11c27.485,0,49.767-2.735,49.767-6.11
			c0-3.374-22.281-6.109-49.767-6.109C406.781,393.046,384.499,395.781,384.499,399.155z"/>
		<g>
			<g>
				<g>
					
						<linearGradient id="SVGID_00000008867058579539343940000000334784373994080165_" gradientUnits="userSpaceOnUse" x1="445.1415" y1="479.5392" x2="416.9968" y2="255.1638">
						<stop  offset="0" style="stop-color:#19456C"/>
						<stop  offset="0.2486" style="stop-color:#183F63"/>
						<stop  offset="0.6605" style="stop-color:#162E49"/>
						<stop  offset="0.9944" style="stop-color:#131E30"/>
					</linearGradient>
					<path style="fill:url(#SVGID_00000008867058579539343940000000334784373994080165_);" d="M423.557,391.995h-7.968
						l-5.073-61.256l5.701-56.185l21.53-2.016l-12.912,64.047C428.483,351.386,425.434,370.326,423.557,391.995z"/>
				</g>
			</g>
			<path style="fill:#FFFFFF;" d="M423.787,391.516c0,0,0.48,0.67,0.48,2.055c0,1.385-0.136,6.16-0.136,6.16h-23.319
				c0,0-0.085-3.631,2.869-5.57c2.954-1.939,7.493-0.04,11.832-3.086C415.513,391.075,416.674,392.136,423.787,391.516z"/>
		</g>
		<g>
			<g>
				<g>
					
						<linearGradient id="SVGID_00000041974488940816135160000012926256833812997813_" gradientUnits="userSpaceOnUse" x1="440.5028" y1="263.9638" x2="471.2504" y2="468.7742">
						<stop  offset="0" style="stop-color:#19456C"/>
						<stop  offset="0.2486" style="stop-color:#183F63"/>
						<stop  offset="0.6605" style="stop-color:#162E49"/>
						<stop  offset="0.9944" style="stop-color:#131E30"/>
					</linearGradient>
					<path style="fill:url(#SVGID_00000041974488940816135160000012926256833812997813_);" d="M467.188,391.533
						c-1.541-16.603-8.779-50.017-13.395-57.222l-0.045-62.645l-21.041,4.987l6.288,57.791l20.127,56.631
						C461.521,392.417,464.309,392.163,467.188,391.533z"/>
				</g>
			</g>
			<path style="fill:#FFFFFF;" d="M467.188,391.533c0,0,0.532,0.707,0.532,2.091c0,1.384,0,6.106,0,6.106h-23.298
				c0,0-0.085-3.631,2.869-5.57c2.954-1.939,7.493-0.04,11.832-3.086C459.122,391.075,460.075,392.154,467.188,391.533z"/>
		</g>
		<g>
			<g>
				<g>
					<g>
						<g>
							<path style="fill:#FDB900;" d="M414.924,274.82c1.012,1.712,4.477,3.025,7.457,3.757c0.205,0.051,0.408,0.098,0.607,0.143
								c0.52,0.117,1.015,0.213,1.474,0.291c4.891,0.827,9.816,1.198,14.768,1.2c0.918,0,1.891-0.063,2.891-0.187
								c0.201-0.024,0.404-0.052,0.607-0.08c5.155-0.747,10.887-2.98,13.763-5.852l-4.154-18.765l8.069-46.626l-10.699-3.686
								l-0.575-0.198l-2.401-0.827l-1.906-0.656l-11.327,1.494l-1.843,0.242l-0.65,0.086l-8.103,1.068L414.924,274.82z"/>
						</g>
					</g>
				</g>
			</g>
		</g>
		<g>
			<g>
				<path style="fill:#131E30;" d="M423.389,175.383c0,0-4.439-1.369-4.184-5.526c0.255-4.157,3.224-6.787,9.418-4.666
					c6.193,2.121,17.214-0.265,21.044,4.666c3.83,4.931-0.991,20.838-0.991,20.838L423.389,175.383z"/>
				<g>
					<path style="fill:#FAB08D;" d="M435.029,197.16l0.524,6.391l0.24,2.929c3.757,2.631,9.654-1.278,9.654-1.278l0.262-10.039
						c-1.735-1.105-5.974,0.502-8.597,1.303C435.877,196.843,435.029,197.16,435.029,197.16z"/>
				</g>
				<g>
					<path style="fill:#F28368;" d="M435.029,197.16l0.524,6.391c4.303-1.113,7.773-7.206,7.773-7.206l-6.214,0.12
						C435.877,196.843,435.029,197.16,435.029,197.16z"/>
				</g>
				<g>
					<g>
						<path style="fill:#FAB08D;" d="M422.901,180.909c0.009,0.219,0.019,0.441,0.031,0.666c0.222,4.02,1.035,8.89,1.814,12.85
							c0.828,4.201,4.964,6.891,9.14,5.942c3.155-0.717,6.768-1.655,9.714-2.734c0.986-0.361,1.867-0.937,2.582-1.676
							c0.546-0.561,0.995-1.216,1.322-1.941c0.721-1.594,1.22-3.279,1.565-5.008c0.278-1.399,0.453-2.823,0.56-4.254
							c0.008-0.089,0.02-0.175,0.038-0.258c-0.021-0.775-0.046-1.548-0.077-2.305l0-0.002c-0.185-4.655-0.519-8.676-0.519-8.676
							c-6.259-7.395-23.114-4.036-25.556,1.547c-0.044,0.102-0.086,0.211-0.126,0.323
							C422.935,176.676,422.81,178.634,422.901,180.909z"/>
					</g>
				</g>
				<g>
					<path style="fill:#131E30;" d="M446.182,195.957c0.546-0.561,0.995-1.216,1.322-1.941c0.721-1.594,1.22-3.279,1.565-5.008
						c-0.663-0.107-1.537-0.045-2.618,0.453C446.45,189.461,442.966,194.745,446.182,195.957z"/>
				</g>
				<g>
					<path style="fill:#131E30;" d="M423.389,175.383h0.002c5.156,3.315,13.72-1.374,13.72-1.374
						c0.563,2.316,3.953,2.182,4.862,4.135c0.503,1.081,0.724,2.68,0.821,3.892c0.077,0.956,0.889,1.684,1.847,1.66l0,0
						c2.201-3.2,4.949-1.505,4.949-1.505l0-0.002c-0.185-4.655-0.519-8.676-0.519-8.676c-6.259-7.395-23.114-4.036-25.556,1.547
						C423.471,175.162,423.429,175.27,423.389,175.383z"/>
				</g>
				<g>
					<g>
						<path style="fill:#FAB08D;" d="M444.642,183.695c0,0,2.631-3.352,4.948-1.505c2.552,2.036,0.811,9.196-4.276,9.16
							L444.642,183.695z"/>
					</g>
				</g>
			</g>
		</g>
		<path style="fill:#FD9801;" d="M422.904,206.224c0,0-15.369,30.761-18.623,39.97c0,0-17.06,0.432-24.251,0l1.928,8.438
			c0,0,17.721,1.862,23.435,2.292c5.227,0.394,13.443-15.704,13.443-15.704L422.904,206.224z"/>
		<g>
			<path style="fill:#FD9801;" d="M411.46,256.018c17.008,6.433,35.483-1.458,35.483-1.458s13.153-13.152,16.235-27.383
				c3.082-14.234-2.772-18.477-2.772-18.477c-10.421,26.701-18.914,37.494-18.914,37.494s-14.3,2.408-21.076,3.332
				c-3.683,0.505-8.957-1.156-8.957-1.156C410.786,252.223,411.46,256.018,411.46,256.018z"/>
			<path style="fill:#FAB08D;" d="M411.46,248.371c0,0-2.622-3.178-3.911-3.178c-1.289,0-2.06,1.589-2.06,1.589
				s-3.467-1.204-5.008,0.434c-1.541,1.637-2.141,12.294,10.979,8.803V248.371z"/>
		</g>
		<g>
			<g>
				<path style="fill:#FFFFFF;" d="M375.329,234.503l13.712,33.595c0.487,1.196,1.651,1.973,2.937,1.973h20.496
					c2.255,0,3.792-2.282,2.937-4.369l-13.708-33.595c-0.486-1.196-1.65-1.973-2.937-1.973H378.27
					C376.015,230.134,374.478,232.417,375.329,234.503z"/>
				
					<linearGradient id="SVGID_00000134249432864261756940000002720930607730501001_" gradientUnits="userSpaceOnUse" x1="397.1969" y1="261.3896" x2="380.9073" y2="212.1812">
					<stop  offset="0" style="stop-color:#D2D2D2"/>
					<stop  offset="0.3082" style="stop-color:#DBDBDB"/>
					<stop  offset="0.8191" style="stop-color:#F5F5F5"/>
					<stop  offset="0.9944" style="stop-color:#FFFFFF"/>
				</linearGradient>
				<path style="fill:url(#SVGID_00000134249432864261756940000002720930607730501001_);" d="M375.329,234.503l13.712,33.595
					c0.487,1.196,1.651,1.973,2.937,1.973h16.677c2.255,0,3.792-2.282,2.937-4.369l-13.708-33.595
					c-0.486-1.196-1.65-1.973-2.937-1.973H378.27C376.015,230.134,374.478,232.417,375.329,234.503z"/>
				<path style="opacity:0.2;fill:#011B2E;" d="M388.823,251.219c0.708,1.845,2.778,3.341,4.623,3.341
					c1.845,0,2.767-1.496,2.059-3.341c-0.708-1.845-2.778-3.341-4.623-3.341S388.115,249.374,388.823,251.219z"/>
			</g>
			<path style="fill:#FAB08D;" d="M378.817,247.641c0,0-1.537-3.44,0.094-4.361l1.387,3.399c0,0,3.014-2.723,5.108-1.396
				c2.094,1.327,5.466,8.565,4.41,10.506c-1.055,1.941-6.901,3.651-8.985,1.232C378.748,254.6,378.047,249.849,378.817,247.641z"/>
		</g>
	</g>
	<g>
		<g>
			<path style="fill:#008062;" d="M370.175,405.003c4.571-7.917,18.436-8.47,30.969-1.234c12.533,7.236,18.987,19.52,14.416,27.437
				c-4.571,7.917-18.436,8.469-30.969,1.234C372.058,425.204,365.604,412.92,370.175,405.003z"/>
			<g>
				<path style="fill:#FFFFFF;" d="M415.294,424.028h-0.008c-0.079,0.387-0.213,0.742-0.403,1.05c0,0,0,0.008-0.008,0.008
					c-4.746,7.683-30.068,3.293-32.886-3.498c-0.245-0.592-0.49-1.137-0.718-1.642c-3.514-7.549-5.748-5.448-11.915-10.565
					c-0.268-0.221-0.513-0.45-0.718-0.687c-0.024-0.031-0.055-0.055-0.079-0.087c-3.474-3.956,0.798-9.001,0.798-9.001
					c0.261-0.205,0.521-0.402,0.782-0.592c0-0.008,0-0.008,0-0.008c2.061-1.492,4.201-2.503,6.38-3.111
					c0.995-0.284,2.006-0.474,3.016-0.584C397.591,393.258,416.952,416.219,415.294,424.028z"/>
				
					<linearGradient id="SVGID_00000131365534126312872570000008086215003959695541_" gradientUnits="userSpaceOnUse" x1="391.4198" y1="411.7531" x2="395.2274" y2="380.6827">
					<stop  offset="0" style="stop-color:#D2D2D2"/>
					<stop  offset="0.3082" style="stop-color:#DBDBDB"/>
					<stop  offset="0.8191" style="stop-color:#F5F5F5"/>
					<stop  offset="0.9944" style="stop-color:#FFFFFF"/>
				</linearGradient>
				<path style="fill:url(#SVGID_00000131365534126312872570000008086215003959695541_);" d="M414.875,425.086
					c-4.746,7.683-30.068,3.293-32.886-3.498c-0.245-0.592-0.49-1.137-0.718-1.642c-3.538-7.517-5.938-5.235-11.915-10.565
					c-0.26-0.229-0.497-0.458-0.718-0.687c-0.024-0.031-0.055-0.055-0.079-0.087c-3.474-3.956,0.798-9.001,0.798-9.001
					c0.261-0.205,0.521-0.402,0.782-0.592c-0.505,1.461-0.987,4.761,3.016,7.967c0.939,0.758,2.013,1.319,3.119,1.808
					c0.877,0.379,2.637,1.714,5.78,6.096c5.03,7.004,4.343,7.896,15.5,10.952C408.456,428.829,414.607,425.244,414.875,425.086z"/>
				
					<linearGradient id="SVGID_00000054988015841420945170000006508603443671087750_" gradientUnits="userSpaceOnUse" x1="380.6079" y1="410.428" x2="384.4156" y2="379.3576">
					<stop  offset="0" style="stop-color:#D2D2D2"/>
					<stop  offset="0.3082" style="stop-color:#DBDBDB"/>
					<stop  offset="0.8191" style="stop-color:#F5F5F5"/>
					<stop  offset="0.9944" style="stop-color:#FFFFFF"/>
				</linearGradient>
				<path style="fill:url(#SVGID_00000054988015841420945170000006508603443671087750_);" d="M387.579,401.454
					c-6.459-5.359-11.062-5.559-11.062-5.559c0.995-0.284,2.006-0.474,3.016-0.584C384.684,397.053,387.516,401.241,387.579,401.454
					z"/>
			</g>
		</g>
		<g>
			<polygon style="fill:#008062;" points="116.59,445.737 385.298,445.737 349.817,389.413 152.072,389.413 			"/>
			<g>
				<g>
					
						<linearGradient id="SVGID_00000003066386235284964100000008914145559944043425_" gradientUnits="userSpaceOnUse" x1="251.242" y1="431.2096" x2="251.242" y2="373.1676">
						<stop  offset="0" style="stop-color:#D2D2D2"/>
						<stop  offset="0.3082" style="stop-color:#DBDBDB"/>
						<stop  offset="0.8191" style="stop-color:#F5F5F5"/>
						<stop  offset="0.9944" style="stop-color:#FFFFFF"/>
					</linearGradient>
					<polygon style="fill:url(#SVGID_00000003066386235284964100000008914145559944043425_);" points="125.611,428.362 
						376.873,428.362 352.404,389.413 150.08,389.413 					"/>
					
						<rect x="125.611" y="428.362" transform="matrix(-1 -1.224647e-16 1.224647e-16 -1 502.4841 865.5446)" style="fill:#A0A0A0;" width="251.262" height="8.821"/>
				</g>
				<g>
					<polygon style="fill:#FFFFFF;" points="338.98,396.289 351.678,396.289 349.817,392.297 337.523,392.297 					"/>
					<polygon style="fill:#FFFFFF;" points="337.336,396.289 335.731,392.297 323.437,392.297 324.639,396.289 					"/>
					<polygon style="fill:#FFFFFF;" points="322.995,396.289 321.645,392.297 309.35,392.297 310.297,396.289 					"/>
					<polygon style="fill:#FFFFFF;" points="308.607,396.289 307.512,392.297 295.218,392.297 295.91,396.289 					"/>
					<polygon style="fill:#FFFFFF;" points="294.25,396.289 293.41,392.297 281.116,392.297 281.552,396.289 					"/>
					<polygon style="fill:#FFFFFF;" points="279.893,396.289 279.308,392.297 267.014,392.297 267.195,396.289 					"/>
					<polygon style="fill:#FFFFFF;" points="265.573,396.289 265.244,392.297 252.95,392.297 252.876,396.289 					"/>
					<polygon style="fill:#FFFFFF;" points="251.344,396.289 251.269,392.297 238.975,392.297 238.646,396.289 					"/>
					<polygon style="fill:#FFFFFF;" points="237.024,396.289 237.205,392.297 224.911,392.297 224.326,396.289 					"/>
					<polygon style="fill:#FFFFFF;" points="222.667,396.289 223.103,392.297 210.809,392.297 209.969,396.289 					"/>
					<polygon style="fill:#FFFFFF;" points="208.31,396.289 209.001,392.297 196.707,392.297 195.612,396.289 					"/>
					<polygon style="fill:#FFFFFF;" points="193.922,396.289 194.869,392.297 182.575,392.297 181.224,396.289 					"/>
					<polygon style="fill:#FFFFFF;" points="179.58,396.289 180.783,392.297 168.489,392.297 166.883,396.289 					"/>
					<polygon style="fill:#FFFFFF;" points="165.239,396.289 152.542,396.289 154.402,392.297 166.696,392.297 					"/>
				</g>
				<g>
					<polygon style="fill:#FFFFFF;" points="341.616,403.751 354.78,403.751 352.851,399.612 340.105,399.612 					"/>
					<polygon style="fill:#FFFFFF;" points="339.912,403.751 338.247,399.612 325.501,399.612 326.747,403.751 					"/>
					<polygon style="fill:#FFFFFF;" points="325.043,403.751 323.643,399.612 310.897,399.612 311.879,403.751 					"/>
					<polygon style="fill:#FFFFFF;" points="310.126,403.751 308.991,399.612 296.245,399.612 296.962,403.751 					"/>
					<polygon style="fill:#FFFFFF;" points="295.241,403.751 294.37,399.612 281.624,399.612 282.077,403.751 					"/>
					<polygon style="fill:#FFFFFF;" points="280.356,403.751 279.75,399.612 267.004,399.612 267.192,403.751 					"/>
					<polygon style="fill:#FFFFFF;" points="265.51,403.751 265.169,399.612 252.422,399.612 252.346,403.751 					"/>
					<polygon style="fill:#FFFFFF;" points="250.757,403.751 250.681,399.612 237.935,399.612 237.593,403.751 					"/>
					<polygon style="fill:#FFFFFF;" points="235.911,403.751 236.099,399.612 223.353,399.612 222.747,403.751 					"/>
					<polygon style="fill:#FFFFFF;" points="221.026,403.751 221.479,399.612 208.733,399.612 207.862,403.751 					"/>
					<polygon style="fill:#FFFFFF;" points="206.142,403.751 206.859,399.612 194.113,399.612 192.977,403.751 					"/>
					<polygon style="fill:#FFFFFF;" points="191.225,403.751 192.207,399.612 179.46,399.612 178.061,403.751 					"/>
					<polygon style="fill:#FFFFFF;" points="176.356,403.751 177.603,399.612 164.856,399.612 163.192,403.751 					"/>
					<polygon style="fill:#FFFFFF;" points="161.487,403.751 148.323,403.751 150.252,399.612 162.998,399.612 					"/>
				</g>
				<g>
					<polygon style="fill:#FFFFFF;" points="343.98,411.081 357.538,411.081 355.552,406.818 342.423,406.818 					"/>
					<polygon style="fill:#FFFFFF;" points="342.224,411.081 340.51,406.818 327.382,406.818 328.665,411.081 					"/>
					<polygon style="fill:#FFFFFF;" points="326.91,411.081 325.468,406.818 312.34,406.818 313.351,411.081 					"/>
					<polygon style="fill:#FFFFFF;" points="311.546,411.081 310.376,406.818 297.248,406.818 297.987,411.081 					"/>
					<polygon style="fill:#FFFFFF;" points="296.215,411.081 295.318,406.818 282.19,406.818 282.656,411.081 					"/>
					<polygon style="fill:#FFFFFF;" points="280.884,411.081 280.26,406.818 267.132,406.818 267.325,411.081 					"/>
					<polygon style="fill:#FFFFFF;" points="265.593,411.081 265.241,406.818 252.113,406.818 252.034,411.081 					"/>
					<polygon style="fill:#FFFFFF;" points="250.398,411.081 250.319,406.818 237.191,406.818 236.839,411.081 					"/>
					<polygon style="fill:#FFFFFF;" points="235.107,411.081 235.3,406.818 222.172,406.818 221.548,411.081 					"/>
					<polygon style="fill:#FFFFFF;" points="219.776,411.081 220.242,406.818 207.114,406.818 206.217,411.081 					"/>
					<polygon style="fill:#FFFFFF;" points="204.445,411.081 205.183,406.818 192.055,406.818 190.886,411.081 					"/>
					<polygon style="fill:#FFFFFF;" points="189.081,411.081 190.092,406.818 176.964,406.818 175.522,411.081 					"/>
					<polygon style="fill:#FFFFFF;" points="173.766,411.081 175.05,406.818 161.922,406.818 160.208,411.081 					"/>
					<polygon style="fill:#FFFFFF;" points="158.452,411.081 144.893,411.081 146.88,406.818 160.008,406.818 					"/>
				</g>
				<g>
					<polygon style="fill:#FFFFFF;" points="347.27,418.559 361.3,418.559 359.244,414.148 345.659,414.148 					"/>
					<polygon style="fill:#FFFFFF;" points="345.453,418.559 343.679,414.148 330.094,414.148 331.423,418.559 					"/>
					<polygon style="fill:#FFFFFF;" points="329.606,418.559 328.114,414.148 314.529,414.148 315.576,418.559 					"/>
					<polygon style="fill:#FFFFFF;" points="313.707,418.559 312.497,414.148 298.912,414.148 299.677,418.559 					"/>
					<polygon style="fill:#FFFFFF;" points="297.843,418.559 296.915,414.148 283.33,414.148 283.813,418.559 					"/>
					<polygon style="fill:#FFFFFF;" points="221.225,414.148 234.809,414.148 236.766,414.148 250.35,414.148 252.207,414.148 
						265.792,414.148 281.333,414.148 281.979,418.559 266.156,418.559 252.125,418.559 250.432,418.559 236.402,418.559 
						234.609,418.559 220.578,418.559 					"/>
					<polygon style="fill:#FFFFFF;" points="218.745,418.559 219.227,414.148 205.642,414.148 204.714,418.559 					"/>
					<polygon style="fill:#FFFFFF;" points="202.88,418.559 203.645,414.148 190.06,414.148 188.85,418.559 					"/>
					<polygon style="fill:#FFFFFF;" points="186.982,418.559 188.028,414.148 174.444,414.148 172.951,418.559 					"/>
					<polygon style="fill:#FFFFFF;" points="171.135,418.559 172.463,414.148 158.878,414.148 157.104,418.559 					"/>
					<polygon style="fill:#FFFFFF;" points="155.288,418.559 141.257,418.559 143.314,414.148 156.898,414.148 					"/>
				</g>
			</g>
		</g>
	</g>
	<g>
		<path style="opacity:0.5;fill:#FD9801;" d="M123.039,334.054c0,2.572-18.095,4.657-40.417,4.657
			c-22.322,0-40.417-2.085-40.417-4.657c0-2.572,18.095-4.657,40.417-4.657C104.944,329.396,123.039,331.481,123.039,334.054z"/>
		<g>
			<path style="fill:#D7212E;" d="M104.752,303.254c-19.071-25.64-26.8-54.12-26.8-54.12l0.027,24.753
				c0,0,16.268,27.243,21.93,33.313C102.168,307.2,104.752,306.184,104.752,303.254z"/>
			<g>
				<g>
					<g>
						
							<linearGradient id="SVGID_00000170270489787976402530000011105288593651017399_" gradientUnits="userSpaceOnUse" x1="458.8948" y1="247.6203" x2="79.5008" y2="329.9615">
							<stop  offset="0" style="stop-color:#19456C"/>
							<stop  offset="0.2486" style="stop-color:#183F63"/>
							<stop  offset="0.6605" style="stop-color:#162E49"/>
							<stop  offset="0.9944" style="stop-color:#131E30"/>
						</linearGradient>
						<path style="fill:url(#SVGID_00000170270489787976402530000011105288593651017399_);" d="M70.343,311.324
							c0,0,26.721-11.892,38.851-8.948c12.13,2.943,38.899,30.585,38.899,30.585c0.341,3.032-1.636,5.127-4.953,6.681
							c0,0-22.018-13.173-35.542-26.159c0,0-23.196,12.59-35.976,8.566C70.385,321.659,67.085,314.803,70.343,311.324z"/>
					</g>
				</g>
				<path style="fill:#E6E6E6;" d="M142.894,339.599c0,0,0.229,0.818,1.342,1.711c1.113,0.893,5.039,3.862,5.039,3.862
					l15.032-18.743c0,0-2.864-2.409-6.326-1.285c-3.462,1.124-4.862,5.997-10.107,7.52
					C147.873,332.665,147.977,334.283,142.894,339.599z"/>
			</g>
			<g>
				<path style="fill:#131E30;" d="M49.819,255.655c8.951,2.673,16.671,4.217,28.327,1.792c1.452-5.763,7.326-24.258,8.224-32.99
					c0.215-2.09-0.348-6.295-0.954-8.259c-1.434-4.654-5.664-9.936-15.388-10.288c-11.472-0.416-17.878,10.552-17.591,22.859
					C52.608,236.03,50.448,251.297,49.819,255.655z"/>
			</g>
			<g>
				<g>
					<path style="fill:#FAB08D;" d="M70.589,242.141l-0.506,2.837l-0.569,3.207l-0.49,2.771c-1.631,0.924-3.526,0.68-5.158,0.097
						c-2.198-0.784-3.93-2.182-3.93-2.182l0.018-0.224l0.086-1.05l0.576-7.078l0.117-1.484c0.885-0.452,2.279-0.126,3.751,0.436
						c1.448,0.547,2.977,1.33,4.178,1.823C69.805,241.767,70.589,242.141,70.589,242.141z"/>
				</g>
				<g>
					<path style="fill:#F28368;" d="M70.587,242.144l-1.073,6.043c-4.001-1.447-6.76-7.564-6.76-7.564l5.91,0.672
						C69.807,241.766,70.587,242.144,70.587,242.144z"/>
				</g>
				<g>
					<path style="fill:#FAB08D;" d="M77.063,244.748c-2.355,0.74-4.738,0.701-6.978,0.231c-2.138-0.447-4.147-1.282-5.894-2.215
						c-1.38-0.737-2.595-1.536-3.577-2.245c-0.795-0.574-1.443-1.095-1.896-1.478c-0.49-0.417-0.759-0.678-0.759-0.678
						s-0.098-1.522-0.068-3.73c0.033-2.347,0.203-5.472,0.78-8.362c0.693-3.459,1.963-6.585,4.27-7.65l3.769,0.034l17.851,0.165
						c0,0,0.023,0.269,0.051,0.751c0.06,1.052,0.142,3.123,0.081,5.649c-0.003,0.19-0.01,0.38-0.017,0.576
						C84.448,232.817,83.048,242.873,77.063,244.748z"/>
				</g>
				<g>
					<path style="fill:#131E30;" d="M59.985,242.009c-0.492-0.418-2.027-3.644-2.027-3.644s-0.097-1.522-0.066-3.732l1.605,0.899
						C59.497,235.532,61.71,240.731,59.985,242.009z"/>
				</g>
				<g>
					<g>
						<g>
							<path style="fill:#FAB08D;" d="M61.66,228.458c0,0-2.192-3.625-4.687-1.631c-2.75,2.197-1.515,9.928,3.969,9.884
								L61.66,228.458z"/>
						</g>
					</g>
				</g>
				<g>
					<path style="fill:#131E30;" d="M84.61,219.573c-0.055,2.305-4.093,4.611-18.845,4.744c0,0-0.005,6.798-2.91,6.179
						c-0.691-0.147-1.372-4.038-4.184-4.225c0.691-3.458,1.962-6.583,4.27-7.649l21.62,0.199
						C84.56,218.82,84.582,219.089,84.61,219.573z"/>
				</g>
				<g>
					<path style="fill:#131E30;" d="M67.192,219.436c0,0-1.741,10.17-2.708,20.035c-0.108,1.104-0.208,2.209-0.291,3.293
						c-0.196,2.498-2.078,5.344-4.239,5.883l0.662-8.128c-0.797-0.574-1.443-1.096-1.897-1.479
						c-0.492-0.418-0.761-0.677-0.761-0.677s-0.095-1.52-0.066-3.731c0.029-2.347,0.201-5.47,0.779-8.361
						c0.691-3.458,1.963-6.584,4.271-7.65l3.769,0.034C67.122,219.028,67.192,219.436,67.192,219.436z"/>
				</g>
			</g>
			<g>
				<g>
					<g>
						
							<linearGradient id="SVGID_00000152968327563417349950000010665808109603113393_" gradientUnits="userSpaceOnUse" x1="129.3848" y1="328.8018" x2="9.7876" y2="328.411">
							<stop  offset="0" style="stop-color:#19456C"/>
							<stop  offset="0.2486" style="stop-color:#183F63"/>
							<stop  offset="0.6605" style="stop-color:#162E49"/>
							<stop  offset="0.9944" style="stop-color:#131E30"/>
						</linearGradient>
						<path style="fill:url(#SVGID_00000152968327563417349950000010665808109603113393_);" d="M48.415,313.373
							c0,0,33.367-2.832,45.736-1.158c12.369,1.674,41.852,26.402,41.852,26.402c0.652,2.98-1.097,5.269-4.236,7.157
							c0,0-23.261-10.827-38.055-22.346c0,0-25.576,13.145-38.888,11.626C44.35,333.859,45.613,317.74,48.415,313.373z"/>
					</g>
				</g>
				<path style="fill:#FFFFFF;" d="M131.518,345.758c0,0,0.312,0.79,1.511,1.563c1.199,0.773,5.411,3.321,5.411,3.321l13.014-20.196
					c0,0-3.098-2.101-6.425-0.624c-3.327,1.476-4.216,6.467-9.276,8.525C135.753,338.346,136.024,339.944,131.518,345.758z"/>
			</g>
			<g>
				<path style="fill:#FD3F2C;" d="M77.148,290.392c-0.501,8.727,1.107,13.786,3.602,21.282c-14.744,5.233-21.488,7.25-33.69,5.274
					c-0.429-7.171-1.631-19.654-1.423-27.17c0.623-22.348,3.162-36.697,3.162-36.697l6.136-2.371l6.288-2.43l10.667,0.542
					l2.245,0.115l3.817,0.197c0,0,0.488,10.886,3.864,20.23c2.747,7.598-0.404,9.124-2.125,10.934
					c-0.068,0.07-0.131,0.14-0.194,0.212c-0.244,0.28-0.445,0.569-0.585,0.894c-0.043,0.099-0.084,0.206-0.127,0.318
					c-0.104,0.284-0.208,0.605-0.303,0.951C77.652,285.629,77.148,290.392,77.148,290.392z"/>
				<g>
					<path style="fill:#D7212E;" d="M79.691,280.297c-0.068,0.07-0.131,0.14-0.194,0.212c-0.244,0.28-0.445,0.569-0.585,0.894
						c-0.043,0.099-0.084,0.206-0.127,0.318c-2.669,1.161-8.327,3.13-15.936,3.13c-0.343,0-0.691-0.002-1.043-0.011
						c-0.251-0.007-0.447-0.212-0.443-0.463c0.007-0.246,0.208-0.44,0.452-0.44h0.011C71.369,284.163,78.126,281.082,79.691,280.297
						z"/>
				</g>
				<path style="fill:#FAB08D;" d="M71.89,248.823c-0.412,4.025-0.351,10.77-5.42,10.902c-6.095,0.159-10.176-6.437-11.534-9.014
					l6.288-2.43L71.89,248.823z"/>
			</g>
			<g>
				<path style="fill:#D7212E;" d="M93.435,306.297c-7.827-4.362-24.556-14.101-24.556-14.101s-9.344-11.604-20.081-39.115
					c0,0-5.438,4.855-2.262,19.521c3.175,14.662,16.727,28.213,16.727,28.213s18.295,9.095,26.407,9.697L93.435,306.297z"/>
			</g>
			<g>
				<path style="fill:#FFFFFF;" d="M127.201,310.126l-56.344,5.637c-0.32,0.032-0.606-0.202-0.638-0.522l-0.319-3.188
					c-0.032-0.32,0.202-0.606,0.522-0.638l56.345-5.637c0.32-0.032,0.606,0.202,0.638,0.522l0.319,3.188
					C127.755,309.809,127.522,310.094,127.201,310.126z"/>
				<g>
					<g>
						
							<linearGradient id="SVGID_00000143585617100885831950000000303278390849503631_" gradientUnits="userSpaceOnUse" x1="110.9983" y1="312.7673" x2="107.1803" y2="252.6988">
							<stop  offset="0" style="stop-color:#D2D2D2"/>
							<stop  offset="0.3082" style="stop-color:#DBDBDB"/>
							<stop  offset="0.8191" style="stop-color:#F5F5F5"/>
							<stop  offset="0.9944" style="stop-color:#FFFFFF"/>
						</linearGradient>
						<polygon style="fill:url(#SVGID_00000143585617100885831950000000303278390849503631_);" points="127.781,310.217 
							80.735,314.767 92.467,287.814 139.513,283.263 						"/>
						<polygon style="fill:#FFFFFF;" points="124.856,310.501 124.852,310.51 77.807,315.06 89.538,288.106 92.464,287.822 
							80.736,314.767 						"/>
					</g>
					<path style="fill:#A0A0A0;" d="M113.714,298.656c0.165,1.655-1.042,3.131-2.697,3.296c-1.655,0.166-3.131-1.042-3.296-2.697
						c-0.166-1.655,1.042-3.131,2.697-3.296C112.073,295.794,113.548,297.001,113.714,298.656z"/>
				</g>
			</g>
		</g>
	</g>
</g>
<g id="DESIGNED_BY_FREEPIK">
	<g>
		<g id="XMLID_1_">
			<g id="XMLID_20_">
				<path id="XMLID_28_" style="fill:#F4F8F9;" d="M260.104,465.465c-0.432,0.443-0.803,0.931-1.108,1.453l-0.465-0.241
					c-0.067-0.298-0.349-0.503-0.659-0.466c-0.331,0.039-0.568,0.339-0.529,0.67c0.039,0.331,0.339,0.568,0.67,0.529
					c0.065-0.008,0.127-0.026,0.183-0.052l0.452,0.234c-0.251,0.554-0.433,1.139-0.539,1.744l0.747,0.132
					c0.23-1.306,0.85-2.507,1.792-3.473L260.104,465.465z"/>
				<path id="XMLID_27_" style="fill:#F4F8F9;" d="M265.592,463.163c-0.171,0-0.341,0.006-0.51,0.017l-0.074-0.626
					c0.188-0.149,0.296-0.389,0.266-0.645c-0.046-0.393-0.402-0.674-0.795-0.628c-0.393,0.046-0.674,0.402-0.628,0.795
					c0.03,0.254,0.189,0.461,0.405,0.564l0.073,0.624c-0.714,0.116-1.403,0.332-2.06,0.646l0.327,0.684
					c0.934-0.447,1.942-0.673,2.995-0.673c0.496,0,0.993,0.053,1.475,0.158l0.161-0.741
					C266.692,463.222,266.142,463.163,265.592,463.163z"/>
				<path id="XMLID_26_" style="fill:#F4F8F9;" d="M272.194,465.711c0.331-0.04,0.566-0.341,0.526-0.672
					c-0.04-0.331-0.341-0.566-0.672-0.526c-0.309,0.038-0.535,0.304-0.53,0.609l-0.416,0.363c-0.418-0.43-0.89-0.813-1.408-1.139
					l-0.404,0.641c1.134,0.715,2.021,1.726,2.563,2.925l0.691-0.313c-0.251-0.554-0.568-1.072-0.942-1.545l0.402-0.351
					C272.065,465.716,272.129,465.719,272.194,465.711z"/>
				<path id="XMLID_25_" style="fill:#F4F8F9;" d="M265.044,473.372c-0.386,0.023-0.775,0.035-1.157,0.035
					c-0.88,0-1.733-0.061-2.478-0.179c-0.39-0.062-0.846-0.155-1.27-0.292c1.046,1.861,3.069,3.125,5.388,3.125
					c2.855,0,5.262-1.916,5.95-4.504c-0.682,0.449-1.505,0.825-2.459,1.123C267.839,473.047,266.464,473.286,265.044,473.372z"/>
				<path id="XMLID_21_" style="fill:#F4F8F9;" d="M265.592,464.68c-3.352,0-6.08,2.666-6.08,5.943c0,0.426,0.046,0.849,0.137,1.261
					c0.673,0.483,2.706,0.89,5.348,0.731c2.879-0.173,5.297-0.957,6.672-2.159c-0.005-0.195-0.021-0.39-0.045-0.582
					C271.244,466.913,268.65,464.68,265.592,464.68z M263.432,471.194c-1.02,0-1.85-0.83-1.85-1.85c0-1.02,0.83-1.85,1.85-1.85
					c1.02,0,1.85,0.83,1.85,1.85C265.282,470.365,264.452,471.194,263.432,471.194z M268.17,470.286c-0.75,0-1.36-0.61-1.36-1.36
					s0.61-1.361,1.36-1.361c0.75,0,1.361,0.61,1.361,1.361S268.92,470.286,268.17,470.286z"/>
			</g>
			<path id="XMLID_18_" style="fill:#F4F8F9;" d="M281.595,466.547c-0.295-0.116-0.805-0.309-1.382-0.237
				c-0.551,0.069-0.844,0.341-0.844,1.007v0.866h2.228v1.717h-2.228v5.455h-1.932v-5.455h-1.34v-1.717h1.34v-0.888
				c0-1.68,0.896-2.783,2.568-2.783c0.643,0,1.157,0.122,1.59,0.308L281.595,466.547z"/>
			<path id="XMLID_16_" style="fill:#F4F8F9;" d="M286.298,469.879c-0.177-0.03-0.358-0.046-0.526-0.046
				c-0.896,0-1.51,0.548-1.51,1.614v3.908h-1.932v-7.172h1.873v0.785c0.451-0.673,1.14-0.977,2.021-0.977
				c0.414,0,0.848,0.128,1.094,0.337L286.298,469.879z"/>
			<path id="XMLID_13_" style="fill:#F4F8F9;" d="M293.965,471.757c0,0.222-0.015,0.489-0.037,0.651h-5.085
				c0.207,1.036,0.933,1.488,1.843,1.488c0.622,0,1.295-0.252,1.813-0.688l1.132,1.243c-0.814,0.748-1.85,1.088-3.057,1.088
				c-2.198,0-3.723-1.495-3.723-3.753c0-2.258,1.48-3.797,3.627-3.797C292.544,467.99,293.958,469.522,293.965,471.757z
				 M288.851,471.091h3.175c-0.177-0.918-0.733-1.436-1.562-1.436C289.554,469.655,289.021,470.203,288.851,471.091z"/>
			<path id="XMLID_10_" style="fill:#F4F8F9;" d="M301.618,471.757c0,0.222-0.015,0.489-0.037,0.651h-5.085
				c0.207,1.036,0.933,1.488,1.843,1.488c0.622,0,1.295-0.252,1.813-0.688l1.132,1.243c-0.814,0.748-1.85,1.088-3.057,1.088
				c-2.198,0-3.723-1.495-3.723-3.753c0-2.258,1.48-3.797,3.627-3.797C300.197,467.99,301.611,469.522,301.618,471.757z
				 M296.504,471.091h3.175c-0.178-0.918-0.733-1.436-1.562-1.436C297.207,469.655,296.674,470.203,296.504,471.091z"/>
			<path id="XMLID_7_" style="fill:#F4F8F9;" d="M309.964,471.764c0,2.154-1.495,3.775-3.471,3.775
				c-0.962,0-1.643-0.378-2.109-0.933v3.708h-1.924v-10.133h1.887v0.792c0.466-0.585,1.155-0.984,2.139-0.984
				C308.469,467.99,309.964,469.61,309.964,471.764z M304.287,471.764c0,1.132,0.747,1.976,1.843,1.976
				c1.14,0,1.85-0.881,1.85-1.976c0-1.095-0.71-1.976-1.85-1.976C305.035,469.788,304.287,470.632,304.287,471.764z"/>
			<path id="XMLID_4_" style="fill:#F4F8F9;" d="M313.068,465.836c0,0.696-0.54,1.229-1.236,1.229c-0.696,0-1.229-0.533-1.229-1.229
				c0-0.696,0.533-1.243,1.229-1.243C312.527,464.592,313.068,465.14,313.068,465.836z M312.809,475.354h-1.932v-7.172h1.932
				V475.354z"/>
			<path id="XMLID_2_" style="fill:#F4F8F9;" d="M316.032,470.736l2.701-2.554h2.368l-3.479,3.375l3.501,3.797h-2.376l-2.716-2.901
				v2.901H314.1v-10.658h1.932V470.736z"/>
		</g>
		<g>
			<path style="fill:#F4F8F9;" d="M184.412,475.289v-1.055c-0.527,0.718-1.391,1.23-2.387,1.23c-1.846,0-3.149-1.406-3.149-3.706
				c0-2.256,1.289-3.721,3.149-3.721c0.952,0,1.816,0.469,2.387,1.245v-3.765h1.099v9.77H184.412z M184.412,473.37v-3.208
				c-0.395-0.615-1.245-1.143-2.124-1.143c-1.421,0-2.27,1.172-2.27,2.739c0,1.567,0.85,2.724,2.27,2.724
				C183.168,474.483,184.017,473.986,184.412,473.37z"/>
			<path style="fill:#F4F8F9;" d="M186.932,471.744c0-2.051,1.465-3.706,3.486-3.706c2.139,0,3.398,1.67,3.398,3.794v0.279h-5.727
				c0.088,1.333,1.025,2.446,2.549,2.446c0.805,0,1.626-0.322,2.182-0.894l0.527,0.718c-0.703,0.703-1.655,1.084-2.812,1.084
				C188.44,475.465,186.932,473.956,186.932,471.744z M190.403,468.947c-1.509,0-2.256,1.274-2.314,2.358h4.643
				C192.718,470.25,192.015,468.947,190.403,468.947z"/>
			<path style="fill:#F4F8F9;" d="M194.607,474.351l0.571-0.791c0.469,0.542,1.362,1.011,2.329,1.011c1.084,0,1.67-0.513,1.67-1.216
				c0-1.714-4.38-0.659-4.38-3.281c0-1.098,0.952-2.036,2.636-2.036c1.201,0,2.051,0.454,2.622,1.026l-0.513,0.762
				c-0.424-0.513-1.201-0.894-2.109-0.894c-0.967,0-1.567,0.483-1.567,1.113c0,1.552,4.38,0.527,4.38,3.281
				c0,1.187-0.952,2.138-2.783,2.138C196.306,475.465,195.325,475.113,194.607,474.351z"/>
			<path style="fill:#F4F8F9;" d="M201.477,466.471c0-0.41,0.337-0.747,0.732-0.747c0.41,0,0.747,0.337,0.747,0.747
				c0,0.41-0.337,0.732-0.747,0.732C201.814,467.203,201.477,466.881,201.477,466.471z M201.667,475.289v-7.075h1.099v7.075H201.667
				z"/>
			<path style="fill:#F4F8F9;" d="M204.582,477.105l0.556-0.82c0.586,0.703,1.289,0.967,2.3,0.967c1.172,0,2.27-0.571,2.27-2.124
				v-1.011c-0.513,0.718-1.377,1.26-2.373,1.26c-1.845,0-3.149-1.377-3.149-3.662c0-2.27,1.289-3.677,3.149-3.677
				c0.952,0,1.802,0.469,2.373,1.245v-1.069h1.098v6.87c0,2.344-1.641,3.076-3.369,3.076
				C206.237,478.16,205.417,477.926,204.582,477.105z M209.709,473.253v-3.091c-0.381-0.615-1.23-1.143-2.109-1.143
				c-1.421,0-2.27,1.128-2.27,2.695c0,1.553,0.849,2.695,2.27,2.695C208.478,474.41,209.328,473.868,209.709,473.253z"/>
			<path style="fill:#F4F8F9;" d="M217.413,475.289v-4.629c0-1.245-0.63-1.641-1.582-1.641c-0.865,0-1.685,0.527-2.095,1.099v5.17
				h-1.099v-7.075h1.099v1.025c0.498-0.586,1.465-1.201,2.519-1.201c1.48,0,2.256,0.747,2.256,2.285v4.966H217.413z"/>
			<path style="fill:#F4F8F9;" d="M219.932,471.744c0-2.051,1.465-3.706,3.486-3.706c2.139,0,3.398,1.67,3.398,3.794v0.279h-5.727
				c0.088,1.333,1.025,2.446,2.549,2.446c0.806,0,1.626-0.322,2.183-0.894l0.527,0.718c-0.703,0.703-1.655,1.084-2.812,1.084
				C221.441,475.465,219.932,473.956,219.932,471.744z M223.404,468.947c-1.509,0-2.256,1.274-2.314,2.358h4.643
				C225.718,470.25,225.015,468.947,223.404,468.947z"/>
			<path style="fill:#F4F8F9;" d="M233.35,475.289v-1.055c-0.527,0.718-1.392,1.23-2.388,1.23c-1.846,0-3.149-1.406-3.149-3.706
				c0-2.256,1.289-3.721,3.149-3.721c0.952,0,1.817,0.469,2.388,1.245v-3.765h1.098v9.77H233.35z M233.35,473.37v-3.208
				c-0.396-0.615-1.245-1.143-2.124-1.143c-1.421,0-2.27,1.172-2.27,2.739c0,1.567,0.849,2.724,2.27,2.724
				C232.105,474.483,232.954,473.986,233.35,473.37z"/>
			<path style="fill:#F4F8F9;" d="M239.692,475.289v-9.77h1.098v3.765c0.572-0.776,1.421-1.245,2.388-1.245
				c1.845,0,3.149,1.465,3.149,3.721c0,2.299-1.304,3.706-3.149,3.706c-0.996,0-1.86-0.513-2.388-1.23v1.055H239.692z
				 M242.9,474.483c1.436,0,2.285-1.157,2.285-2.724c0-1.568-0.85-2.739-2.285-2.739c-0.864,0-1.728,0.527-2.109,1.143v3.208
				C241.171,473.986,242.036,474.483,242.9,474.483z"/>
			<path style="fill:#F4F8F9;" d="M247.528,477.061c0.161,0.073,0.425,0.117,0.601,0.117c0.483,0,0.805-0.161,1.055-0.747
				l0.469-1.069l-2.959-7.148h1.187l2.358,5.8l2.344-5.8h1.201l-3.545,8.51c-0.425,1.025-1.143,1.421-2.08,1.435
				c-0.234,0-0.601-0.044-0.806-0.103L247.528,477.061z"/>
		</g>
	</g>
</g>
</svg>
